<svg xmlns="http://www.w3.org/2000/svg" id="Layer_2" data-name="Layer 2" viewBox="0 0 827.6 826.2"><defs><style>.cls-1{fill:none;stroke:#000;stroke-miterlimit:10;stroke-width:20px}</style></defs><path d="M350.2 816.2c-118.6 0-327-26.5-340.2-105.9C9.5 692 24 678 31.7 662a389.2 389.2 0 0033.4-76.4c39.3-126.3 17.3-197.9 46.8-261.8C160.8 203.8 285 146 403.6 170.5a254.5 254.5 0 01192.8 190.6c7.3 33.3 8.5 66.1 9.9 100.2 6 48.4 14.1 95 30.8 140.6 26 70.6 52.7 84.8 46.3 114-17.4 79.7-213.9 100.3-333.2 100.3zm-189.4-306C148.3 697.6 344.8 796.6 474 679c52.4-49 63.8-111.9 61.4-167.6-.5-18 1.9-45.5-5.3-52.7-8-8.5-21-5.9-31.9-7.2-22-3-44.3-8.3-64.6-18-81.7-39-69.5-94.6-109.4-45.9a187.4 187.4 0 01-102.8 59.8c-64.2 11.4-60.8-4.8-60.6 62.9zM675.7 293c-46.2-1 1.8-96.8-132.5-123.3a20.3 20.3 0 012.4-38.6c65.5-13.4 91.6-33 104.6-96 3.5-14.3 8.6-25.3 23.2-25.1 16.1 0 19.7 16 22.5 27.3 16.2 72 50.3 79.6 110.6 95 17.9 8.4 12.1 30.1-3.3 36.8-141.1 38.7-81 120-127.5 123.9z" class="cls-1"/><path d="M348.5 641.2c-91.4-3.5-72.7-55.1-53-55.6 5.4-.8 11.2.3 16.4 2 45.8 20.3 52.3 8 86.4-2.4 21.9-4.1 27.8 20.9 18.2 34-16.4 19.2-52 21.6-68 22z" class="cls-1"/></svg>