<svg xmlns="http://www.w3.org/2000/svg" viewBox="0 0 24 24"><path d="M23.9 7.1c0-1-.2-2-.6-2.9-.6-1.6-1.9-2.9-3.5-3.5-.9-.3-1.9-.5-2.9-.6C15.7 0 15.2 0 12 0S8.3 0 7.1.1c-1 0-2 .2-2.9.6-1.7.6-2.9 1.8-3.5 3.4C.3 5.1.1 6 .1 7 0 8.3 0 8.7 0 12s0 3.7.1 4.9c0 1 .2 2 .6 2.9.6 1.6 1.9 2.9 3.5 3.5.9.4 1.9.6 2.9.6 1.2.1 1.7.1 4.9.1s3.7 0 4.9-.1c1 0 2-.2 2.9-.6 1.6-.6 2.9-1.9 3.5-3.5.3-.9.5-1.9.6-2.9.1-1.2.1-1.6.1-4.9 0-3.2 0-3.6-.1-4.9zM12 18.1c-3.4 0-6.1-2.8-6.1-6.1S8.6 5.8 12 5.8s6.1 2.8 6.1 6.1-2.7 6.2-6.1 6.2zM18.4 7c-.8 0-1.4-.6-1.4-1.4 0-.8.6-1.4 1.4-1.4.8 0 1.4.6 1.4 1.4 0 .8-.6 1.4-1.4 1.4z"/><circle cx="12" cy="12" r="4"/></svg>