<svg version="1.0" xmlns="http://www.w3.org/2000/svg" width="2666.667" height="2666.667" viewBox="0 0 2000 2000"><path d="M1560.2 102.5c-14.2 3.1-23.8 12.4-31.2 30.2-1.7 4-6.9 22.1-11.5 40.1-9.8 38.3-15.3 54.9-24 72.7-9.8 20.2-18.7 32.8-33.9 48-18.8 18.8-36.4 31.2-61.1 43.4-21.9 10.8-38.9 16.2-80 25.2-26 5.8-34.3 8.5-43 14-25.9 16.4-25.8 56 .3 73.2 9.3 6.1 14.9 8 44.1 14.8 39.5 9.2 61.4 17.3 85.6 31.6 16.8 9.9 28.7 19.4 45.6 36.2 37.5 37.6 54.6 69.6 72.9 136.6 8.1 29.8 10.5 35.6 18.1 44 14.7 16 44.8 19.3 62 6.6 5.7-4.2 12.3-13.2 15.9-21.7 3.2-7.7 7.6-24.8 13.5-51.9 2-9.4 5.2-21.7 7.2-27.5 10.2-30.3 35.6-67.5 62.6-91.7 15.8-14.1 31.1-24 55.2-35.7 20.9-10.2 34.9-15.6 60.7-23.2 36.1-10.6 47.5-15.9 58.9-27.3 10.2-10.2 14.7-21.3 13.6-34.1-.9-10.5-4.1-17.6-11.1-24.6-10-10-16.3-12.4-52.6-20.5-59.7-13.2-89.3-25.5-124.5-51.8-39.2-29.3-60.2-66.8-78.6-140.4-9.3-37.2-12.4-45-21.6-54.8-5.4-5.8-12.4-9.6-21-11.4-8.3-1.8-13.8-1.8-22.1 0zM840.5 443.6c-23 1.3-80.7 7.7-98 10.9-25 4.7-71.8 18.5-101.4 30.1-15.7 6.2-48.3 22.1-67.1 32.9-55.8 31.8-100.4 68.1-146.6 119.5-51 56.8-91.8 130.9-115.3 209.5-6.7 22.6-8 28.4-15 67-7.6 41.2-8.8 52.4-9.6 85.5-.8 33.7-3.2 84.8-4.6 96.5-.6 4.9-2.6 18.7-4.5 30.6-1.8 11.8-4.5 31.5-5.9 43.6-2.8 24.6-3.6 29.3-13 74.8-15.9 77-33.6 137.6-57.7 197.5-18.1 44.9-33.9 76.1-63.1 124.8-16 26.7-27.5 48.6-31.4 59.6-1.5 4.4-2.7 10.4-3 15.7-.8 12.4 1.4 21.1 9.1 36.4 13.9 27.4 29.6 44 61.5 64.9 34.8 22.8 75 42.6 121.6 59.9 48.5 17.9 139.2 40.7 212 53.1 103.7 17.8 151.5 24.3 195 26.5 11 .6 29.2 1.6 40.5 2.2 13.3.7 57 .9 124.5.7l104-.4 28.5-3.7c39.4-5.1 93.2-11.4 107-12.7 18.2-1.6 28-2.9 50-6.6 11.3-1.8 31.4-5 44.6-6.9 25.1-3.6 27.6-4.1 66.4-12.5 108.6-23.4 196.9-56.4 259-96.8 32.4-21 49.1-37.7 59-58.7 5.9-12.4 8-20 8.9-32.4 2.1-28.6-4.1-49.2-25.4-84.1-43.5-71.2-70.4-131.1-95.5-212.7-7.7-24.8-17.9-64.6-22.9-89.3-2.2-10.7-5.6-26.7-7.5-35.5-4-18.3-4.7-22.5-8.1-48.3-1.4-10.3-3.8-26.1-5.5-35.2-6.5-36-7.5-48.1-9-102.5-1.1-42.9-2.2-54.7-9.6-109.4-5.8-43.1-7.9-54.2-15-80.1-9.9-36.4-21.2-66-37.9-99.8-28.6-57.9-57.4-98.7-100.9-142.9-42.3-43.1-76.2-69.6-125.6-98-45.8-26.4-103.9-49.1-155.7-60.8-27.3-6.1-112.9-14.2-136.8-12.9zM866 898c8.6 4.3 15.4 10.6 32 29.5 53.9 61.4 107.9 99 181.2 126.4 16.5 6.2 32.5 10.7 59.3 16.6 26 5.7 36.5 7.2 62 8.5 24.9 1.3 34.4 2.8 42.9 6.8 10.9 5.1 17.3 13.5 21.2 27.7 2.3 8.9 3.7 62.2 2.9 119.5-.6 50.9-1 56.6-5.6 93.5-4.7 37.5-8.2 53-18.5 82.5-12 34.6-27.2 65.3-48 96.5-19.1 28.8-33.9 46.8-57.6 70.1-46.8 46.1-108.7 82.8-173.3 102.9-41.5 12.9-66.6 16.1-120.5 15.2-44.2-.7-60.1-2.9-94.4-12.9-100.5-29.4-183.8-90.6-239.9-176.4-24.8-37.9-45.5-84.1-55.7-124.4-3.4-13.5-11.3-53.9-13.5-69-3.9-26.2-4.5-172.1-.9-192.7 2-11.7 6-19.9 12.9-26.1 9.6-8.8 20.2-11.5 51.7-13.2 23.9-1.3 32.4-2.3 50.9-6 53.9-11 92.7-24.5 131.8-45.9 43-23.5 76-50 113.9-91.6 27.8-30.4 32.6-34.8 42-38.6 6.4-2.6 16.9-2.1 23.2 1.1z"/></svg>