<svg version="1.0" xmlns="http://www.w3.org/2000/svg" width="1066.667" height="1066.667" viewBox="0 0 800 800"><path d="M622.2 39.4c-1.7.9-4.8 2.7-6.7 4.1-4 3.1-4.7 5.2-10 29.5-6.5 29.9-16.1 44.4-38.4 57.8-12.8 7.8-27.8 12.6-46.6 15.1-12.5 1.7-15.2 3.2-18.7 10.6-1.6 3.4-2.8 7.7-2.8 9.9 0 4.9 3.2 10.6 8.2 14.6 3.4 2.7 5.1 3.3 14.7 4.4 6 .8 11.5 1.7 12 2.1.6.3 4.4 1.5 8.4 2.6 14.4 4 29.7 13.7 39.8 25.1 5.6 6.4 14.2 18.6 17.3 24.6 3.4 6.5 10.6 29.1 11.2 35 1.4 12.7 6.7 17.4 20.3 18 7.7.3 8.9.2 12.1-2 4.3-2.9 7.3-11.2 9.5-26.3 1.8-11.8 4.6-21.6 7.7-26.7 10.8-17.5 20.2-28 31.5-34.7 12.3-7.3 28.2-13.9 38.5-15.9 5.9-1.2 12-3.2 15.5-5.1 11-6 13.3-9 13.3-17.6 0-5.2-.4-6.8-2.8-10.1-4.3-5.9-5.2-6.4-16.4-8.4-29.5-5.3-40.7-9.4-58-21.6-10.4-7.3-14.9-12.8-20.8-25-5.9-12.3-9.2-22.6-12.4-38.2-3.3-16-3.6-16.5-9.8-19.6-6.9-3.3-12.4-4-16.6-2.2zM322 175.7c-1.9.2-5.5.8-7.8 1.4-2.4.5-9.3 1.6-15.3 2.4-6 .8-12.2 2.1-13.7 2.9-1.5.8-5.4 1.9-8.7 2.5-3.2.6-7.6 2-9.7 3.1-2.2 1.1-6 2.5-8.6 3-2.6.6-5.8 1.9-7.2 2.9-1.4 1-4.1 2.3-6 3-1.9.7-6.2 2.8-9.5 4.6-3.3 1.9-8.1 4.5-10.7 5.9-2.6 1.4-4.9 3-5.3 3.6-.3.6-2.3 1.7-4.3 2.6-2 .8-4.4 2.2-5.4 3.2-.9.9-3.6 3-5.8 4.7-6.9 5-24.8 20.4-27 23.2-1.1 1.4-4.1 4.9-6.7 7.8-2.7 2.9-6.4 7.4-8.3 10-1.9 2.5-4.5 5.9-5.7 7.3-3 3.5-6.9 9.4-8.9 13.5-.9 1.7-2.4 4.1-3.4 5.2-1 1.1-2.1 3.1-2.5 4.4-.4 1.2-1.8 3.9-3.1 5.8-1.3 2-2.4 4.3-2.4 5.2 0 1-1.1 3.2-2.5 5.1-1.4 1.8-2.8 5-3.1 6.9-.3 2-1.5 5.1-2.6 7-1 1.8-2.5 5.9-3.2 9-.8 3.1-2.1 7.2-3 9.3-.8 2-2.1 6.9-2.7 11-.6 4-1.9 10.7-3 14.8-1.4 5.7-2.1 14.1-2.9 35-.6 15.1-1.7 31.3-2.5 36-.8 4.7-1.9 14.3-2.5 21.5-.6 7.1-2 16.4-3 20.5-1 4.1-2.4 11.2-3 15.8-.6 4.5-1.8 10.1-2.6 12.4-.8 2.3-1.9 7.3-2.5 11.2-.6 3.9-2 9.3-3.1 12.1-1.1 2.7-2.4 7.3-2.9 10.2-.6 3-2.1 7.7-3.4 10.6-1.4 2.8-2.5 6.3-2.5 7.7 0 1.4-.9 3.9-2 5.7-1 1.8-2.6 5.7-3.4 8.8-.8 3.1-2.1 6.4-3 7.3-.8 1-1.8 3-2.1 4.7-.4 1.6-2 5.3-3.6 8.1s-2.9 5.7-2.9 6.3c0 .7-1.1 2.7-2.4 4.4-1.3 1.8-2.7 4.3-3.1 5.7-.4 1.4-1.8 3.9-3.1 5.6-1.3 1.7-2.4 3.5-2.4 4.1 0 .6-1.2 2.6-2.8 4.6-4.1 5.4-8.1 12.1-9.3 15.6-.6 1.6-1.9 3.3-3 3.6-1.7.6-1.9 1.7-1.9 13.7 0 12.6.1 13.1 2.4 14.9 1.4 1.1 2.7 3.2 3.1 4.7.7 3.5 18.9 21.2 21.8 21.2.6 0 3 1.4 5.1 3 2.2 1.7 4.5 3 5.1 3 .7 0 2 .9 2.9 1.9 1 1.1 3 2.2 4.4 2.6 1.5.3 4.3 1.7 6.2 3 1.9 1.3 5.4 2.8 7.6 3.4 2.3.6 4.7 1.8 5.4 2.5.6.8 2.6 1.8 4.3 2.1 1.8.4 6.2 2 9.9 3.6 3.6 1.6 7.7 2.9 9 2.9 1.3 0 4.2.9 6.3 2.1 2.2 1.1 7.7 2.7 12.2 3.4 4.5.8 9.5 2.1 11.2 2.9 1.6.9 6.3 2.1 10.3 2.6 4 .6 9.8 1.9 12.8 2.9 3 1.1 10.5 2.4 16.7 3 6.1.6 13.3 1.8 16 2.7 2.6.8 13.5 2.1 24.1 2.9 19.3 1.4 27.2 2.7 27.2 4.5 0 1.5 153.7 1.3 154.2-.1.5-1.6 8.3-2.8 29.3-4.4 10.5-.8 21.2-2.2 24-3 2.7-.9 9.2-2 14.5-2.6 5.2-.5 12.7-1.9 16.5-2.9 3.9-1.1 10.3-2.4 14.3-3 4-.5 8.6-1.7 10.2-2.5 1.6-.8 6.2-2.2 10.2-2.9 4-.8 9.3-2.4 11.8-3.5s5.6-2.1 7-2.1c1.4 0 5.2-1.4 8.5-3s6.9-3 8-3c1.1 0 3.8-1.1 6-2.5 2.2-1.3 4.7-2.5 5.5-2.5.8 0 3.1-.9 5-2s5.8-3.1 8.5-4.5c4.6-2.3 8.7-4.6 17.5-10 1.8-1.1 4.2-3 5.3-4.2 1.1-1.3 2.5-2.3 3.1-2.3.6 0 3.8-2.9 7.1-6.5 4.9-5.2 6.8-8.2 9.5-15 2.9-7.5 3.2-9.3 2.7-14.8-.6-6.5-4.7-17.8-7.7-21.2-.9-1.1-2.4-3.1-3.1-4.6-2.6-4.8-5.4-9.2-7.5-11.8-1.2-1.4-2.7-4.3-3.3-6.3-.7-2.1-1.7-4-2.1-4.3-1.2-.8-8.7-16.3-9.5-19.7-.4-1.5-1.3-3.2-2.1-3.9-.8-.6-2.1-3.6-3-6.7-.9-3-2.4-6.9-3.4-8.6-1-1.7-2.2-4.9-2.5-7.1-.4-2.2-1.6-5.6-2.6-7.5-1-1.9-2.5-6.6-3.4-10.3-.8-3.7-2.1-8-2.9-9.5-.8-1.5-1.7-5-2.1-7.7-.4-2.8-1.7-8.8-3-13.5-1.3-4.7-2.6-11.2-3-14.4-.4-3.3-1.5-8.5-2.5-11.7-1.1-3.2-2.4-11.3-3-18.1-.6-6.8-1.5-14.2-2.1-16.5-2.1-9.7-3-19.8-3.9-46.1-.6-18.4-1.5-29.6-2.5-33.4-.8-3.1-2-9.9-2.6-15-.6-5.1-1.8-10.6-2.6-12.1-.8-1.6-2.1-6.1-2.9-10-.9-4-2.4-8.5-3.4-10.2-1.1-1.7-2.2-5-2.6-7.3-.3-2.3-1.7-5.6-3-7.4-1.3-1.7-2.4-3.9-2.4-4.9 0-.9-1.1-3.2-2.4-5.1-1.3-2-2.9-5.1-3.5-7-.7-2-2.1-4.4-3.1-5.3-1.1-1-2-2.4-2-3.1 0-.7-1.1-2.5-2.4-4.1-1.3-1.5-3.1-4.3-4-6.1-.9-1.8-2.3-4.1-3.1-5-.8-.9-3-3.7-4.9-6.2-11.1-14-32.8-36.1-39.8-40.5-.9-.5-4.4-3.2-7.8-5.8-3.4-2.7-7-5.1-7.9-5.4-.9-.3-2.4-1.3-3.4-2.2-2.3-2-9.8-6.4-15.3-9-2.3-1.1-4.5-2.4-4.8-3-.4-.5-3-1.7-6-2.5-2.9-.9-5.9-2.2-6.5-3-.7-.8-3.4-1.9-6-2.5-2.7-.6-6.4-1.9-8.2-3-1.9-1.1-6-2.4-9.1-3-3.2-.6-7.1-1.7-8.8-2.6-1.7-.9-8.3-2.2-14.8-3.1-6.4-.8-15.1-2.1-19.2-2.9-6.9-1.3-33.2-1.8-43-.8zm23.9 183.8c2.2 1.3 4.2 3.3 4.6 4.5.3 1.1 1 2 1.5 2s2.5 2.4 4.3 5.2c3.7 5.7 18.2 20.1 26.1 25.8 2.6 1.9 5.7 4.5 6.9 5.7 1.1 1.3 2.6 2.3 3.2 2.3 1.2 0 10.4 5.6 14.6 8.9 1.4 1.1 3.9 2.3 5.4 2.7 1.6.4 5.3 2 8.3 3.6 3 1.5 6 2.8 6.8 2.8.7 0 3 .9 5.1 2 2.1 1 7 2.6 10.8 3.4 3.9.9 9.5 2.3 12.5 3.1 3.5 1 11.4 1.8 21.5 2.1 21.3.7 22.2.8 24.5 4.7 1.9 3 2 5.3 2 40.8 0 44-1 59.8-4.5 70.6-1.4 4.2-2.5 8.6-2.5 9.8 0 1.2-1.1 4.2-2.4 6.7-1.3 2.5-2.7 6-3.1 7.9-.4 1.9-1.7 5-3 6.9-1.3 1.9-2.6 4.6-3 6-.4 1.4-1.8 3.8-3.1 5.3-1.3 1.6-2.4 3.3-2.4 3.8 0 3.9-22.7 30.5-34 39.9-4.7 3.8-9.6 7.9-11 9-4.1 3.4-9.3 6.8-12.8 8.4-1.8.9-4.4 2.4-5.8 3.5-1.4 1.1-3.8 2.2-5.4 2.6-1.6.3-3.4 1.3-4.1 2.1-.6.8-3.7 2.1-6.8 3-3.1.9-6.9 2.4-8.6 3.4-1.6 1-5.5 2.1-8.5 2.5-3 .4-7.7 1.6-10.4 2.7-11.1 4.3-50.1 4.3-62.8-.1-3.2-1.1-7.9-2.3-10.5-2.6-2.6-.4-6.3-1.6-8.1-2.6-1.9-1.1-5.5-2.4-8-3-2.6-.5-5.4-1.7-6.2-2.4-.9-.8-3.4-2.1-5.6-2.8-2.2-.8-5.6-2.5-7.6-3.8-1.9-1.3-5.1-3.3-6.9-4.4-14.8-8.9-35.6-27.8-44.4-40.4-1.6-2.3-3.9-5.5-5-6.9-2.9-3.8-9.5-14.8-9.5-15.9 0-.4-1.1-2.5-2.4-4.4-1.4-2-2.8-4.9-3.2-6.5-.3-1.6-1.6-4.7-2.9-6.9-1.2-2.2-2.5-6-2.9-8.4-.4-2.4-1.5-6.3-2.6-8.6-3.9-8.5-5.4-26.9-5.7-70.7l-.4-40.7 2.3-3.6c1.3-1.9 3.2-3.7 4.3-4 1.1-.2 9.9-.6 19.5-.9 14-.3 18.8-.8 24.1-2.5 3.7-1.2 9.1-2.6 12-3.1 2.9-.6 7-1.9 8.9-2.9 2-1 5.1-2.2 7-2.6 1.9-.4 5.3-1.7 7.5-3 2.2-1.2 5.1-2.6 6.5-3 1.4-.4 3.9-1.7 5.5-2.9 2.9-2.1 4.2-2.8 12.4-7.3 2.2-1.3 5.1-3.3 6.5-4.5 1.4-1.3 3.9-3.4 5.6-4.8 7.6-6 18.9-17.2 26.2-26 7.1-8.5 12.8-13.8 15.1-13.9.4-.1 2.5 1 4.6 2.4z"/><path d="M291.5 548.7c-9.7 3.4-14 10.4-13.3 21.6.8 12.3 6.2 16.9 29.5 24.8 20.1 6.8 41.4 7.1 65.6 1 17.5-4.5 25.7-8.9 31.7-17.3 2.5-3.4 3-5 3-10 0-7.5-1.6-11.2-7.4-16.8-4.5-4.3-4.9-4.5-10.9-4.5-5.8 0-6.8.4-15.5 5.7-10.9 6.7-16.9 8.3-30.2 8.2-11.3 0-17.8-1.8-30.3-8.1-10.5-5.2-16.7-6.5-22.2-4.6z"/></svg>