<?xml version="1.0" encoding="utf-8"?>
<!-- Generator: Adobe Illustrator 24.0.1, SVG Export Plug-In . SVG Version: 6.00 Build 0)  -->
<svg version="1.1" id="Layer_1" xmlns="http://www.w3.org/2000/svg" xmlns:xlink="http://www.w3.org/1999/xlink" x="0px" y="0px"
	 viewBox="0 0 24 24" style="enable-background:new 0 0 24 24;" xml:space="preserve">
<path d="M23.9,7.1c0-1-0.2-2-0.6-2.9c-0.6-1.6-1.9-2.9-3.5-3.5c-0.9-0.3-1.9-0.5-2.9-0.6C15.7,0,15.2,0,12,0S8.3,0,7.1,0.1
	c-1,0-2,0.2-2.9,0.6C2.5,1.3,1.3,2.5,0.7,4.1C0.3,5.1,0.1,6,0.1,7C0,8.3,0,8.7,0,12s0,3.7,0.1,4.9c0,1,0.2,2,0.6,2.9
	c0.6,1.6,1.9,2.9,3.5,3.5c0.9,0.4,1.9,0.6,2.9,0.6C8.3,24,8.8,24,12,24s3.7,0,4.9-0.1c1,0,2-0.2,2.9-0.6c1.6-0.6,2.9-1.9,3.5-3.5
	c0.3-0.9,0.5-1.9,0.6-2.9C24,15.7,24,15.3,24,12C24,8.8,24,8.4,23.9,7.1L23.9,7.1z M12,18.1c-3.4,0-6.1-2.8-6.1-6.1S8.6,5.8,12,5.8
	s6.1,2.8,6.1,6.1S15.4,18.1,12,18.1z M18.4,7c-0.8,0-1.4-0.6-1.4-1.4c0-0.8,0.6-1.4,1.4-1.4c0.8,0,1.4,0.6,1.4,1.4c0,0,0,0,0,0
	C19.8,6.4,19.2,7,18.4,7z"/>
<circle cx="12" cy="12" r="4"/>
</svg>
