<svg xmlns="http://www.w3.org/2000/svg" width="220" height="26"><path fill="#4A4A49" d="M80.197 15.758c-.734-.242-.734-.579-.734-.738V7.342h-2.25v7.676c0 .731.276 1.345.797 1.774.503.406 1.292.698 2.407.886.522.085 1.397.125 2.681.125h7.528v-1.766h-7.56c-1.322 0-2.284-.093-2.869-.279zm33.632-7.857c-1.382.595-1.672 1.503-1.672 2.162v.765c0 2.303 3.477 2.474 4.614 2.529.182.008.447.014.828.014h2.839c.866 0 2.888.087 2.888.911v.913c0 .325-.492.538-.909.661-.283.082-.864.182-2.013.182h-8.247v1.766h8.237c.783 0 1.376-.027 1.812-.082a6.823 6.823 0 0 0 1.65-.434c1.425-.585 1.72-1.477 1.72-2.125v-.916c0-.639-.285-1.517-1.646-2.079-.9-.372-2.08-.562-3.504-.562h-2.863a24.53 24.53 0 0 1-1.377-.022 4.493 4.493 0 0 1-1.096-.262c-.248-.097-.68-.303-.68-.552v-.707c0-.833 1.832-.956 2.924-.956h8.241V7.342h-8.212c-1.495 0-2.65.18-3.534.559zm-56.016 7.857c-.732-.242-.732-.577-.732-.738V7.342h-2.25v7.676c0 .731.275 1.345.797 1.774.502.406 1.29.698 2.407.886.519.085 1.396.125 2.681.125h7.526v-1.766h-7.558c-1.323 0-2.285-.093-2.871-.279zm-38.301-5.417c0-1.64-1.485-2.986-3.316-2.986H7.142v10.45h9.053c1.832 0 3.316-1.329 3.316-2.969 0-.899-.447-1.703-1.153-2.247.706-.544 1.154-1.349 1.154-2.248zm-3.361 5.702H8.925v-2.541h7.226c.807 0 1.461.498 1.461 1.197s-.654 1.344-1.461 1.344zm0-4.303H8.925V9.116l7.226-.007c.807 0 1.461.645 1.461 1.344.001.701-.654 1.287-1.461 1.287zm16.913-1.67c0-.668 1.331-.877 2.125-.944.198-.014.392-.021.584-.021h8.419V7.342h-8.323c-.244 0-.53.012-.875.039-2.743.225-4.135 1.133-4.135 2.694v5.056c0 1.521 1.326 2.406 3.945 2.631.316.029.61.041.88.041h8.458v-1.766h-8.39c-.905 0-1.627-.122-2.146-.367-.541-.254-.541-.489-.541-.589v-1.587h11.037l.035-.619.027-.45.043-.695H33.064v-1.66zM12.77 0C5.717 0 0 5.627 0 12.572c0 6.943 5.717 12.572 12.77 12.572 7.052 0 12.77-5.629 12.77-12.572C25.54 5.627 19.822 0 12.77 0zm0 23.337c-6.04 0-10.936-4.819-10.936-10.765 0-5.946 4.896-10.767 10.936-10.767 6.039 0 10.935 4.821 10.935 10.767S18.809 23.337 12.77 23.337zm86.829-5.534h2.249V7.341h-2.249v10.462zm100.457 3.22h-.972v3.93h4.047v-.75h-3.075v-3.18zm8.081 3.93h.971v-3.936h-.971v3.936zm8.336-7.153l2.84.003-.871-1.068-7.277-8.883c-.199-.284-.58-.595-1.294-.595-.318 0-.595.065-.829.186a1.34 1.34 0 0 0-.497.364l-7.276 8.928-.869 1.065 1.396.003 1.437-.003.22-.263 1.854-2.402h9.043l1.918 2.408.205.257zm-9.717-4.429l3.084-3.92 3.1 3.92h-6.184zm-16.399 7.647l-2.126 3.936h.983l.457-.848h2.562l.457.848h.984l-2.12-3.936h-1.197zm-.287 2.337l.877-1.615.878 1.615h-1.755zm27.719-2.337h-1.198l-2.126 3.936h.983l.458-.848h2.562l.458.848h.983l-2.12-3.936zm-1.485 2.337l.878-1.615.878 1.615h-1.756zM136.816 7.901c-1.377.595-1.667 1.503-1.667 2.162v.765c0 2.303 3.475 2.474 4.61 2.529.184.008.449.014.832.014h2.838c.867 0 2.888.087 2.888.911v.913c0 .325-.493.538-.905.661-.285.082-.867.182-2.015.182h-8.248v1.766h8.24c.779 0 1.374-.027 1.813-.082a6.857 6.857 0 0 0 1.645-.434c1.422-.585 1.723-1.477 1.723-2.125v-.916c0-.639-.291-1.517-1.646-2.079-.896-.372-2.08-.562-3.502-.562h-2.863a24.07 24.07 0 0 1-1.374-.022 4.445 4.445 0 0 1-1.101-.262c-.249-.097-.684-.303-.684-.552v-.707c0-.833 1.828-.956 2.924-.956h8.246V7.342h-8.215c-1.496 0-2.652.18-3.539.559zm42.185 13.867h1.905v3.186h.971v-3.186h1.905v-.75h-4.781v.75zm-20.151-3.965h2.251V7.341h-2.251v10.462zm13.332 7.15h.973v-3.936h-.973v3.936zm8.844-7.515l.065.072c.248.258.582.376.994.376.579 0 .924-.251 1.107-.46-.008.012 4.372-4.573 6.511-6.815v7.192h2.253V8.241c0-.39-.246-.83-.919-.923V7.3l-.012.016c-.078-.008-.153-.016-.24-.016-.38 0-.749.133-1.119.404a.96.96 0 0 0-.272.243l.052-.061-7.359 7.701-7.462-7.654c-.272-.264-.381-.354-.467-.407-.224-.151-.514-.227-.836-.227-.098 0-.184.008-.271.018l-.015-.017v.021c-.886.126-.916.832-.916.92v9.562h2.251v-7.22l6.41 6.624c.016.017.191.186.245.231z"/></svg>