<?xml version="1.0" encoding="utf-8"?>
<!-- Generator: Adobe Illustrator 19.2.1, SVG Export Plug-In . SVG Version: 6.00 Build 0)  -->
<svg version="1.1" id="layer" xmlns="http://www.w3.org/2000/svg" xmlns:xlink="http://www.w3.org/1999/xlink" x="0px" y="0px"
	 viewBox="0 0 652 652" style="enable-background:new 0 0 652 652;" xml:space="preserve">
<polygon points="448.7,237.9 433.4,237.9 433.4,203.2 412.3,203.2 412.3,237.9 393.9,237.9 393.9,256.8 412.3,256.8 412.3,353.9 
	433.4,353.9 433.4,256.8 448.7,256.8 "/>
<polygon points="493,353.9 493,256.8 511.5,256.8 511.5,237.9 493,237.9 493,203.2 471.9,203.2 471.9,237.9 456.7,237.9 
	456.7,256.8 471.9,256.8 471.9,353.9 "/>
<path d="M100.8,326.5c-5.8,5.1-13.6,8.6-23.2,8.6c-24.1,0-36.5-20.1-36.5-39.2c0-16.7,9.7-39,36.9-39c10.4,0,17.5,3.7,22.5,8.2
	c3.7-5.6,8.4-10.5,13.7-14.6c-10.4-8.2-23.2-12.6-36.4-12.5c-35.4,0-57.8,28-57.8,57.8c0,28.4,20.7,58.1,57.6,58.1
	c13.4,0.1,26.3-4.3,36.8-12.6C109,337.2,104.5,332.1,100.8,326.5"/>
<path d="M569,238.1L569,238.1h-0.4c-0.9-0.1-1.7-0.1-2.6-0.1c-21.3,0-39.7,13.2-48.5,32.3c-3.9,8-5.9,16.8-5.8,25.7
	c0,31.2,25.4,58.1,57.2,58.1c13.1,0,31-5.1,43.5-19.7c-4.4-5.3-7.8-11.3-10.2-17.7h-0.5c-5.1,9.6-16.4,18.5-32,18.5
	c-14.2,0-31.6-8.7-36.9-30h86.6c0-0.1,0-0.3,0.1-0.4h0.1c0.4-2.9,0.7-5.9,0.7-8.8C620.1,265,597.5,239.7,569,238.1 M532.8,289.1
	c1.6-18,15.8-32.1,33.1-32.1c17.3,0,31.5,14,33.1,32.1H532.8z"/>
<path d="M342.6,238.1L342.6,238.1h-0.4c-0.8-0.1-1.7-0.1-2.6-0.1c-21.3,0-39.7,13.2-48.5,32.3c-3.9,8-5.9,16.8-5.8,25.7
	c0,31.2,25.4,58.1,57.2,58.1c13.1,0,30.9-5.1,43.5-19.7c-4.4-5.3-7.8-11.3-10.2-17.7h-0.5c-5.1,9.6-16.4,18.5-32,18.5
	c-14.2,0-31.6-8.7-36.9-30h86.5c0-0.1,0-0.3,0.1-0.4h0.1c0.4-2.9,0.7-5.9,0.7-8.8C393.7,265,371.1,239.8,342.6,238.1 M306.5,289.1
	c1.6-18,15.8-32.1,33.1-32.1s31.5,14,33.1,32.1H306.5z"/>
<path d="M176,238.1c-34.9,0-60.6,27.2-60.6,57.2c0,27.8,22.9,58.7,60.6,58.7c38.1,0,60.6-31.4,60.6-58.3
	C236.6,264.3,210.1,238.1,176,238.1 M176,335.1c-23.5,0-39.6-19.3-39.6-39.2c-0.2-21.9,17.3-39.7,39.2-39.9
	c21.9-0.2,39.7,17.3,39.9,39.2c0.2,21.9-17.3,39.7-39.2,39.9C176.3,335.1,176.1,335.1,176,335.1"/>
<rect x="250.6" y="203.8" width="21" height="150"/>
<path d="M81.9,394.6h3.4v14h0.1c1.6-2,2.3-2.8,4.2-3.8c1.9-1,4.1-1.6,6.3-1.6c7.7-0.1,14.1,5.9,14.3,13.7
	c0.1,7.7-5.9,14.1-13.7,14.3c-0.2,0-0.4,0-0.7,0c-2.3,0-4.6-0.6-6.6-1.7c-1.6-0.8-3-2.1-4-3.6h-0.1v4.7h-3.4L81.9,394.6L81.9,394.6z
	 M95.8,406.4c-6,0.1-10.7,5.2-10.6,11.2c0.1,5.8,4.9,10.4,10.7,10.6c5.8,0.1,10.7-4.5,10.8-10.4c0-0.1,0-0.3,0-0.4
	C106.6,411,102,406.4,95.8,406.4"/>
<polygon points="123.9,429.7 113.5,404 117.1,404 125.6,425.2 134.6,404 138.2,404 122.8,440 119.3,440 "/>
<path d="M185.8,422.7c-0.7,1.6-1.9,3.2-3.1,4.5c-2.6,2.6-6.3,4.1-10,4c-8.1,0-14.4-6.1-14.4-14c0.1-7.8,6.5-14.1,14.3-14
	c3.3,0,6.4,1,9,3.1c2.2,1.7,2.9,2.7,4.2,5.7h-3.7c-0.7-1.5-1.9-2.8-3.3-3.7c-5-3.4-11.8-2.2-15.1,2.8c-3.4,5-2.2,11.8,2.8,15.1
	c1.9,1.3,4,1.9,6.3,1.9c3.9,0.1,7.5-1.9,9.3-5.4L185.8,422.7z"/>
<path d="M205.7,403.3c7.7,0,14,6.2,14,14c0,7.7-6.2,14-14,14c-7.7,0-14-6.1-14-13.8C191.8,409.7,198,403.4,205.7,403.3 M205.7,428.2
	c5.9,0,10.5-4.9,10.5-11c0.1-3.1-1.2-6-3.6-8.1c-1.9-1.7-4.4-2.7-6.9-2.8c-5.8,0-10.5,4.9-10.5,11
	C195.1,423.2,199.8,428.1,205.7,428.2"/>
<rect x="226.7" y="394.6" width="3.4" height="36"/>
<path d="M240.6,418.5c0.4,5.4,4.9,9.6,10.4,9.6c2.7,0,5.2-1,7.2-2.8c1.1-0.9,1.9-2.1,2.3-3.4h3.6c-1.1,2.8-1.8,3.9-3.7,5.7
	c-5.6,5.2-14.3,4.9-19.6-0.7c-2.4-2.6-3.7-6-3.7-9.5c0-7.7,6.3-13.9,14-13.9c7.7,0,13.9,6.3,13.9,14c0,0.2-0.1,0.7-0.1,1.1H240.6z
	 M259.4,410.6c-1.9-2.7-5.1-4.3-8.4-4.3c-2.2,0-4.3,0.7-6,1.9c-1,0.7-1.8,1.6-2.5,2.5c-1,1.3-1.6,2.9-1.8,4.6h20.8
	C260.9,413.1,260.6,412.2,259.4,410.6"/>
<polygon points="275.1,407 269.6,407 269.6,404 275.1,404 275.1,394.6 278.6,394.6 278.6,404 284.9,404 284.9,407 278.6,407 
	278.6,430.6 275.1,430.6 "/>
<polygon points="293.6,407 288,407 288,404 293.6,404 293.6,394.6 297,394.6 297,404 303.4,404 303.4,407 297,407 297,430.6 
	293.6,430.6 "/>
<path d="M311.1,418.5c0.4,5.4,4.9,9.6,10.4,9.6c2.7,0,5.2-1,7.2-2.8c1-0.9,1.9-2.1,2.3-3.4h3.6c-1.1,2.8-1.8,3.9-3.7,5.7
	c-5.6,5.2-14.3,4.9-19.6-0.7c-2.4-2.6-3.7-6-3.7-9.5c0-7.7,6.3-13.9,14-13.9s13.9,6.3,13.9,14c0,0.2-0.1,0.7-0.1,1.1H311.1z
	 M329.9,410.6c-1.9-2.7-5.1-4.3-8.4-4.3c-2.2,0-4.3,0.7-6,1.9c-1,0.7-1.8,1.6-2.5,2.5c-1,1.3-1.6,2.9-1.8,4.6h20.7
	C331.4,413.1,331.1,412.2,329.9,410.6"/>
<path d="M357.8,394.6h3.4v12.8h0.1c1.9-2.7,4.7-4.1,8.4-4.1c2.8-0.1,5.4,0.9,7.5,2.7c2.6,2.3,4,5.5,4,10v14.6h-3.4v-14.6
	c0.1-1.9-0.3-3.7-1.1-5.3c-1.4-2.7-4.2-4.3-7.2-4.3c-2,0-4,0.7-5.5,2c-1.9,1.7-2.8,4.1-2.8,7.5v14.6h-3.4L357.8,394.6z"/>
<path d="M416.7,430.6h-3.4v-4.7h-0.1c-1,1.6-2.5,2.9-4.2,3.8c-1.9,1-4.1,1.5-6.3,1.5c-7.7,0.1-14.1-5.9-14.3-13.7
	c-0.1-7.7,5.9-14.1,13.7-14.3c0.2,0,0.4,0,0.7,0c2.3,0,4.6,0.5,6.6,1.6c1.6,0.9,2.9,2.2,3.9,3.7h0.1V404h3.4L416.7,430.6z
	 M402.8,428.2c6-0.1,10.7-5.1,10.7-11.2c-0.1-5.8-4.8-10.4-10.6-10.7c-6.3,0-10.8,4.7-10.8,11c-0.1,5.8,4.5,10.7,10.4,10.8
	C402.5,428.2,402.6,428.2,402.8,428.2"/>
<polygon points="432.8,429.7 422.4,404 426,404 434.5,425.2 443.5,404 447.2,404 431.7,440 428.1,440 "/>
<path d="M453,404h3.4v3.1h0.1c0.5-1.1,1.4-2,2.5-2.5c1.4-0.8,3.1-1.3,4.7-1.3c2,0.1,4,0.6,5.8,1.6c1.4,0.7,2.5,2,3.1,3.4
	c1-1.9,1.7-2.6,3.4-3.6c1.7-1,3.7-1.5,5.6-1.5c2.2,0,4.3,0.7,6,1.8c3,2,4.6,5.3,4.6,9.7v15.8h-3.4v-15.4c0-5.6-2.6-8.8-7.2-8.8
	c-4.6,0-7.2,3.2-7.2,8.8v15.4h-3.4v-15.4c0-5.6-2.6-8.8-7.2-8.8s-7.2,3.2-7.2,8.8v15.4H453L453,404z"/>
<path d="M526.6,430.6h-3.4v-4.7h-0.1c-1,1.6-2.5,2.9-4.2,3.8c-1.9,1-4.1,1.5-6.3,1.5c-7.7,0.1-14.1-5.9-14.3-13.7
	c-0.1-7.7,5.9-14.1,13.7-14.3c0.2,0,0.4,0,0.7,0c2.3,0,4.6,0.5,6.6,1.6c1.6,0.9,2.9,2.2,3.9,3.7h0.1V404h3.4L526.6,430.6z
	 M512.7,428.2c6-0.1,10.7-5.1,10.7-11.2c-0.1-5.8-4.8-10.4-10.6-10.7c-6.2,0-10.8,4.7-10.8,11c-0.1,5.8,4.5,10.7,10.4,10.8
	C512.3,428.2,512.5,428.2,512.7,428.2"/>
<path d="M534.8,404h3.4v3.4h0.1c1.9-2.7,4.7-4.1,8.4-4.1c2.8-0.1,5.4,0.9,7.5,2.7c2.6,2.3,4,5.5,4,10v14.6h-3.4v-14.7
	c0.1-1.9-0.3-3.7-1.1-5.3c-1.4-2.7-4.2-4.3-7.2-4.3c-2,0-4,0.7-5.5,2c-1.9,1.7-2.8,4.1-2.8,7.5v14.6h-3.4L534.8,404L534.8,404z"/>
</svg>
