<?xml version="1.0" standalone="no"?>
<!DOCTYPE svg PUBLIC "-//W3C//DTD SVG 20010904//EN"
 "http://www.w3.org/TR/2001/REC-SVG-20010904/DTD/svg10.dtd">
<svg version="1.0" xmlns="http://www.w3.org/2000/svg"
 width="2000.000000pt" height="2000.000000pt" viewBox="0 0 2000.000000 2000.000000"
 preserveAspectRatio="xMidYMid meet">
<metadata>
Created by potrace 1.14, written by Peter Selinger 2001-2017
</metadata>
<g transform="translate(0.000000,2000.000000) scale(0.100000,-0.100000)"
fill="#000000" stroke="none">
<path d="M15602 18975 c-142 -31 -238 -124 -312 -302 -17 -40 -69 -221 -115
-401 -98 -383 -153 -549 -240 -727 -98 -202 -187 -328 -339 -480 -188 -188
-364 -312 -611 -434 -219 -108 -389 -162 -800 -252 -260 -58 -343 -85 -430
-140 -259 -164 -258 -560 3 -732 93 -61 149 -80 441 -148 395 -92 614 -173
856 -316 168 -99 287 -194 456 -362 375 -376 546 -696 729 -1366 81 -298 105
-356 181 -440 147 -160 448 -193 620 -66 57 42 123 132 159 217 32 77 76 248
135 519 20 94 52 217 72 275 102 303 356 675 626 917 158 141 311 240 552 357
209 102 349 156 607 232 361 106 475 159 589 273 102 102 147 213 136 341 -9
105 -41 176 -111 246 -100 100 -163 124 -526 205 -597 132 -893 255 -1245 518
-392 293 -602 668 -786 1404 -93 372 -124 450 -216 548 -54 58 -124 96 -210
114 -83 18 -138 18 -221 0z"/>
<path d="M8405 15564 c-230 -13 -807 -77 -980 -109 -250 -47 -718 -185 -1014
-301 -157 -62 -483 -221 -671 -329 -558 -318 -1004 -681 -1466 -1195 -510
-568 -918 -1309 -1153 -2095 -67 -226 -80 -284 -150 -670 -76 -412 -88 -524
-96 -855 -8 -337 -32 -848 -46 -965 -6 -49 -26 -187 -45 -306 -18 -118 -45
-315 -59 -436 -28 -246 -36 -293 -130 -748 -159 -770 -336 -1376 -577 -1975
-181 -449 -339 -761 -631 -1248 -160 -267 -275 -486 -314 -596 -15 -44 -27
-104 -30 -157 -8 -124 14 -211 91 -364 139 -274 296 -440 615 -649 348 -228
750 -426 1216 -599 485 -179 1392 -407 2120 -531 1037 -178 1515 -243 1950
-265 110 -6 292 -16 405 -22 133 -7 570 -9 1245 -7 l1040 4 285 37 c394 51
932 114 1070 127 182 16 280 29 500 66 113 18 314 50 446 69 251 36 276 41
664 125 1086 234 1969 564 2590 968 324 210 491 377 590 587 59 124 80 200 89
324 21 286 -41 492 -254 841 -435 712 -704 1311 -955 2127 -77 248 -179 646
-229 893 -22 107 -56 267 -75 355 -40 183 -47 225 -81 483 -14 103 -38 261
-55 352 -65 360 -75 481 -90 1025 -11 429 -22 547 -96 1094 -58 431 -79 542
-150 801 -99 364 -212 660 -379 998 -286 579 -574 987 -1009 1429 -423 431
-762 696 -1256 980 -458 264 -1039 491 -1557 608 -273 61 -1129 142 -1368 129z
m255 -4544 c86 -43 154 -106 320 -295 539 -614 1079 -990 1812 -1264 165 -62
325 -107 593 -166 260 -57 365 -72 620 -85 249 -13 344 -28 429 -68 109 -51
173 -135 212 -277 23 -89 37 -622 29 -1195 -6 -509 -10 -566 -56 -935 -47
-375 -82 -530 -185 -825 -120 -346 -272 -653 -480 -965 -191 -288 -339 -468
-576 -701 -468 -461 -1087 -828 -1733 -1029 -415 -129 -666 -161 -1205 -152
-442 7 -601 29 -944 129 -1005 294 -1838 906 -2399 1764 -248 379 -455 841
-557 1244 -34 135 -113 539 -135 690 -39 262 -45 1721 -9 1927 20 117 60 199
129 261 96 88 202 115 517 132 239 13 324 23 509 60 539 110 927 245 1318 459
430 235 760 500 1139 916 278 304 326 348 420 386 64 26 169 21 232 -11z"/>
</g>
</svg>
