<?xml version="1.0" standalone="no"?>
<!DOCTYPE svg PUBLIC "-//W3C//DTD SVG 20010904//EN"
 "http://www.w3.org/TR/2001/REC-SVG-20010904/DTD/svg10.dtd">
<svg version="1.0" xmlns="http://www.w3.org/2000/svg"
 width="800.000000pt" height="800.000000pt" viewBox="0 0 800.000000 800.000000"
 preserveAspectRatio="xMidYMid meet">
<metadata>
Created by potrace 1.14, written by Peter Selinger 2001-2017
</metadata>
<g transform="translate(0.000000,800.000000) scale(0.100000,-0.100000)"
fill="#000000" stroke="none">
<path d="M6222 7606 c-17 -9 -48 -27 -67 -41 -40 -31 -47 -52 -100 -295 -65
-299 -161 -444 -384 -578 -128 -78 -278 -126 -466 -151 -125 -17 -152 -32
-187 -106 -16 -34 -28 -77 -28 -99 0 -49 32 -106 82 -146 34 -27 51 -33 147
-44 60 -8 115 -17 120 -21 6 -3 44 -15 84 -26 144 -40 297 -137 398 -251 56
-64 142 -186 173 -246 34 -65 106 -291 112 -350 14 -127 67 -174 203 -180 77
-3 89 -2 121 20 43 29 73 112 95 263 18 118 46 216 77 267 108 175 202 280
315 347 123 73 282 139 385 159 59 12 120 32 155 51 110 60 133 90 133 176 0
52 -4 68 -28 101 -43 59 -52 64 -164 84 -295 53 -407 94 -580 216 -104 73
-149 128 -208 250 -59 123 -92 226 -124 382 -33 160 -36 165 -98 196 -69 33
-124 40 -166 22z"/>
<path d="M3220 6243 c-19 -2 -55 -8 -78 -14 -24 -5 -93 -16 -153 -24 -60 -8
-122 -21 -137 -29 -15 -8 -54 -19 -87 -25 -32 -6 -76 -20 -97 -31 -22 -11 -60
-25 -86 -30 -26 -6 -58 -19 -72 -29 -14 -10 -41 -23 -60 -30 -19 -7 -62 -28
-95 -46 -33 -19 -81 -45 -107 -59 -26 -14 -49 -30 -53 -36 -3 -6 -23 -17 -43
-26 -20 -8 -44 -22 -54 -32 -9 -9 -36 -30 -58 -47 -69 -50 -248 -204 -270
-232 -11 -14 -41 -49 -67 -78 -27 -29 -64 -74 -83 -100 -19 -25 -45 -59 -57
-73 -30 -35 -69 -94 -89 -135 -9 -17 -24 -41 -34 -52 -10 -11 -21 -31 -25 -44
-4 -12 -18 -39 -31 -58 -13 -20 -24 -43 -24 -52 0 -10 -11 -32 -25 -51 -14
-18 -28 -50 -31 -69 -3 -20 -15 -51 -26 -70 -10 -18 -25 -59 -32 -90 -8 -31
-21 -72 -30 -93 -8 -20 -21 -69 -27 -110 -6 -40 -19 -107 -30 -148 -14 -57
-21 -141 -29 -350 -6 -151 -17 -313 -25 -360 -8 -47 -19 -143 -25 -215 -6 -71
-20 -164 -30 -205 -10 -41 -24 -112 -30 -158 -6 -45 -18 -101 -26 -124 -8 -23
-19 -73 -25 -112 -6 -39 -20 -93 -31 -121 -11 -27 -24 -73 -29 -102 -6 -30
-21 -77 -34 -106 -14 -28 -25 -63 -25 -77 0 -14 -9 -39 -20 -57 -10 -18 -26
-57 -34 -88 -8 -31 -21 -64 -30 -73 -8 -10 -18 -30 -21 -47 -4 -16 -20 -53
-36 -81 -16 -28 -29 -57 -29 -63 0 -7 -11 -27 -24 -44 -13 -18 -27 -43 -31
-57 -4 -14 -18 -39 -31 -56 -13 -17 -24 -35 -24 -41 0 -6 -12 -26 -28 -46 -41
-54 -81 -121 -93 -156 -6 -16 -19 -33 -30 -36 -17 -6 -19 -17 -19 -137 0 -126
1 -131 24 -149 14 -11 27 -32 31 -47 7 -35 189 -212 218 -212 6 0 30 -14 51
-30 22 -17 45 -30 51 -30 7 0 20 -9 29 -19 10 -11 30 -22 44 -26 15 -3 43 -17
62 -30 19 -13 54 -28 76 -34 23 -6 47 -18 54 -25 6 -8 26 -18 43 -21 18 -4 62
-20 99 -36 36 -16 77 -29 90 -29 13 0 42 -9 63 -21 22 -11 77 -27 122 -34 45
-8 95 -21 112 -29 16 -9 63 -21 103 -26 40 -6 98 -19 128 -29 30 -11 105 -24
167 -30 61 -6 133 -18 160 -27 26 -8 135 -21 241 -29 193 -14 272 -27 272 -45
0 -15 1537 -13 1542 1 5 16 83 28 293 44 105 8 212 22 240 30 27 9 92 20 145
26 52 5 127 19 165 29 39 11 103 24 143 30 40 5 86 17 102 25 16 8 62 22 102
29 40 8 93 24 118 35 25 11 56 21 70 21 14 0 52 14 85 30 33 16 69 30 80 30
11 0 38 11 60 25 22 13 47 25 55 25 8 0 31 9 50 20 19 11 58 31 85 45 46 23
87 46 175 100 18 11 42 30 53 42 11 13 25 23 31 23 6 0 38 29 71 65 49 52 68
82 95 150 29 75 32 93 27 148 -6 65 -47 178 -77 212 -9 11 -24 31 -31 46 -26
48 -54 92 -75 118 -12 14 -27 43 -33 63 -7 21 -17 40 -21 43 -12 8 -87 163
-95 197 -4 15 -13 32 -21 39 -8 6 -21 36 -30 67 -9 30 -24 69 -34 86 -10 17
-22 49 -25 71 -4 22 -16 56 -26 75 -10 19 -25 66 -34 103 -8 37 -21 80 -29 95
-8 15 -17 50 -21 77 -4 28 -17 88 -30 135 -13 47 -26 112 -30 144 -4 33 -15
85 -25 117 -11 32 -24 113 -30 181 -6 68 -15 142 -21 165 -21 97 -30 198 -39
461 -6 184 -15 296 -25 334 -8 31 -20 99 -26 150 -6 51 -18 106 -26 121 -8 16
-21 61 -29 100 -9 40 -24 85 -34 102 -11 17 -22 50 -26 73 -3 23 -17 56 -30
74 -13 17 -24 39 -24 49 0 9 -11 32 -24 51 -13 20 -29 51 -35 70 -7 20 -21 44
-31 53 -11 10 -20 24 -20 31 0 7 -11 25 -24 41 -13 15 -31 43 -40 61 -9 18
-23 41 -31 50 -8 9 -30 37 -49 62 -111 140 -328 361 -398 405 -9 5 -44 32 -78
58 -34 27 -70 51 -79 54 -9 3 -24 13 -34 22 -23 20 -98 64 -153 90 -23 11 -45
24 -48 30 -4 5 -30 17 -60 25 -29 9 -59 22 -65 30 -7 8 -34 19 -60 25 -27 6
-64 19 -82 30 -19 11 -60 24 -91 30 -32 6 -71 17 -88 26 -17 9 -83 22 -148 31
-64 8 -151 21 -192 29 -69 13 -332 18 -430 8z m239 -1838 c22 -13 42 -33 46
-45 3 -11 10 -20 15 -20 5 0 25 -24 43 -52 37 -57 182 -201 261 -258 26 -19
57 -45 69 -57 11 -13 26 -23 32 -23 12 0 104 -56 146 -89 14 -11 39 -23 54
-27 16 -4 53 -20 83 -36 30 -15 60 -28 68 -28 7 0 30 -9 51 -20 21 -10 70 -26
108 -34 39 -9 95 -23 125 -31 35 -10 114 -18 215 -21 213 -7 222 -8 245 -47
19 -30 20 -53 20 -408 0 -440 -10 -598 -45 -706 -14 -42 -25 -86 -25 -98 0
-12 -11 -42 -24 -67 -13 -25 -27 -60 -31 -79 -4 -19 -17 -50 -30 -69 -13 -19
-26 -46 -30 -60 -4 -14 -18 -38 -31 -53 -13 -16 -24 -33 -24 -38 0 -39 -227
-305 -340 -399 -47 -38 -96 -79 -110 -90 -41 -34 -93 -68 -128 -84 -18 -9 -44
-24 -58 -35 -14 -11 -38 -22 -54 -26 -16 -3 -34 -13 -41 -21 -6 -8 -37 -21
-68 -30 -31 -9 -69 -24 -86 -34 -16 -10 -55 -21 -85 -25 -30 -4 -77 -16 -104
-27 -111 -43 -501 -43 -628 1 -32 11 -79 23 -105 26 -26 4 -63 16 -81 26 -19
11 -55 24 -80 30 -26 5 -54 17 -62 24 -9 8 -34 21 -56 28 -22 8 -56 25 -76 38
-19 13 -51 33 -69 44 -148 89 -356 278 -444 404 -16 23 -39 55 -50 69 -29 38
-95 148 -95 159 0 4 -11 25 -24 44 -14 20 -28 49 -32 65 -3 16 -16 47 -29 69
-12 22 -25 60 -29 84 -4 24 -15 63 -26 86 -39 85 -54 269 -57 707 l-4 407 23
36 c13 19 32 37 43 40 11 2 99 6 195 9 140 3 188 8 241 25 37 12 91 26 120 31
29 6 70 19 89 29 20 10 51 22 70 26 19 4 53 17 75 30 22 12 51 26 65 30 14 4
39 17 55 29 29 21 42 28 124 73 22 13 51 33 65 45 14 13 39 34 56 48 76 60
189 172 262 260 71 85 128 138 151 139 4 1 25 -10 46 -24z"/>
<path d="M2915 2513 c-97 -34 -140 -104 -133 -216 8 -123 62 -169 295 -248
201 -68 414 -71 656 -10 175 45 257 89 317 173 25 34 30 50 30 100 0 75 -16
112 -74 168 -45 43 -49 45 -109 45 -58 0 -68 -4 -155 -57 -109 -67 -169 -83
-302 -82 -113 0 -178 18 -303 81 -105 52 -167 65 -222 46z"/>
</g>
</svg>
