<?xml version="1.0" standalone="no"?>
<!DOCTYPE svg PUBLIC "-//W3C//DTD SVG 1.1//EN" "http://www.w3.org/Graphics/SVG/1.1/DTD/svg11.dtd" >
<svg xmlns="http://www.w3.org/2000/svg" xmlns:xlink="http://www.w3.org/1999/xlink" version="1.1">
<metadata></metadata>
<defs>
<font id="sweet_sans_proextra_light" horiz-adv-x="1214" >
<font-face units-per-em="2048" ascent="1577" descent="-471" />
<missing-glyph horiz-adv-x="460" />
<glyph unicode="&#xfb01;" horiz-adv-x="1198" d="M86 846v78h197v215q0 84 25 148t66.5 99t88 51.5t96.5 16.5q87 0 150 -29l-19 -79q-58 24 -115 24q-79 0 -136.5 -57.5t-57.5 -173.5v-215h315v-78h-315v-846h-98v846h-197zM870 1315q0 28 20.5 46.5t51.5 18.5t51.5 -18.5t20.5 -46.5q0 -29 -20.5 -47.5t-51.5 -18.5 t-51.5 19t-20.5 47zM893 0v924h98v-924h-98z" />
<glyph unicode="&#xfb02;" horiz-adv-x="1249" d="M86 846v78h197v215q0 84 25 148t66.5 99t88 51.5t96.5 16.5q87 0 150 -29l-19 -79q-58 24 -115 24q-79 0 -136.5 -57.5t-57.5 -173.5v-215h315v-78h-315v-846h-98v846h-197zM926 0v1434h96v-1434h-96z" />
<glyph unicode="&#xfb03;" horiz-adv-x="1845" d="M86 846v78h197v215q0 85 25 148.5t67 98.5t89.5 51.5t100.5 16.5q62 0 125.5 -20t102.5 -58l-27 -76q-31 32 -83.5 51t-100.5 19q-86 0 -143.5 -57t-57.5 -174v-215h549v215q0 84 25.5 148t67.5 99t88.5 51.5t96.5 16.5q83 0 150 -29l-21 -79q-58 24 -114 24 q-79 0 -137 -58t-58 -173v-215h315v-78h-315v-846h-98v846h-549v-846h-98v846h-197zM1520 1315q0 28 19.5 46.5t49.5 18.5q31 0 51.5 -18.5t20.5 -46.5q0 -29 -20.5 -47.5t-51.5 -18.5q-30 0 -49.5 19t-19.5 47zM1542 0v924h96v-924h-96z" />
<glyph unicode="&#xfb04;" horiz-adv-x="1898" d="M86 846v78h197v215q0 85 25 148.5t67 98.5t89.5 51.5t100.5 16.5q62 0 125.5 -20t102.5 -58l-27 -76q-31 32 -83.5 51t-100.5 19q-86 0 -143.5 -57t-57.5 -174v-215h549v215q0 84 25.5 148t67.5 99t88.5 51.5t96.5 16.5q83 0 150 -29l-21 -79q-58 24 -114 24 q-79 0 -137 -58t-58 -173v-215h315v-78h-315v-846h-98v846h-549v-846h-98v846h-197zM1573 0v1434h96v-1434h-96z" />
<glyph horiz-adv-x="557" />
<glyph horiz-adv-x="557" />
<glyph horiz-adv-x="682" />
<glyph unicode="&#xd;" horiz-adv-x="501" />
<glyph unicode=" "  horiz-adv-x="460" />
<glyph unicode="&#x09;" horiz-adv-x="460" />
<glyph unicode="&#xa0;" horiz-adv-x="460" />
<glyph unicode="!" horiz-adv-x="581" d="M197 70q0 36 26.5 61t65.5 25t66.5 -25t27.5 -61t-27.5 -61t-66.5 -25t-65.5 25t-26.5 61zM233 1014v323h113v-323l-20 -625h-72z" />
<glyph unicode="&#x22;" horiz-adv-x="796" d="M158 1165v172h104v-172l-20 -268h-64zM535 1165v172h104v-172l-21 -268h-65z" />
<glyph unicode="#" horiz-adv-x="1769" d="M121 238v75h430l80 435h-400v75h414l68 371h82l-68 -371h416l67 371h82l-67 -371h420v-75h-435l-80 -435h404v-75h-418l-78 -424h-80l78 424h-415l-78 -424h-84l78 424h-416zM633 313h416l79 435h-415z" />
<glyph unicode="$" horiz-adv-x="1370" d="M113 197l61 67q211 -185 475 -201v478q-58 4 -100.5 8.5t-94.5 13.5t-89 21.5t-74.5 32.5t-60.5 46.5t-37.5 64t-14.5 83.5q0 69 29 124t75 89.5t108 57.5t124.5 32.5t128.5 9.5h6v189h76v-193q139 -11 254.5 -57.5t189.5 -104.5l-61 -67q-62 51 -160.5 91.5t-222.5 51.5 v-401q52 -2 93.5 -5.5t97.5 -12.5t99 -22t87.5 -36.5t74 -54.5t48 -76.5t18.5 -101.5q0 -87 -41 -154.5t-113.5 -109t-164 -62.5t-199.5 -23v-243h-76v245q-302 17 -536 220zM279 819q0 -44 23.5 -76.5t57.5 -51t88 -30.5t97.5 -16.5t103.5 -7.5v401h-10q-67 0 -128 -11.5 t-114.5 -36t-85.5 -68.5t-32 -103zM725 61q118 2 210 28.5t151 84t59 139.5q0 39 -13.5 70.5t-35 53.5t-55.5 39t-67.5 27t-79.5 17.5t-83.5 11t-85.5 5.5v-476z" />
<glyph unicode="%" horiz-adv-x="2054" d="M123 856q0 138 110 237t267 99q156 0 268.5 -99.5t112.5 -236.5q0 -139 -112 -238.5t-269 -99.5q-158 0 -267.5 99t-109.5 239zM215 856q0 -106 83 -182t202 -76t205 76t86 182q0 104 -86 180t-205 76t-202 -75.5t-83 -180.5zM641 0l694 1169h84l-694 -1169h-84z M1180 317q0 136 110.5 236t265.5 100q156 0 269.5 -100t113.5 -236q0 -141 -113 -240.5t-270 -99.5t-266.5 99.5t-109.5 240.5zM1272 317q0 -108 82.5 -184t201.5 -76t205 76.5t86 183.5q0 103 -86.5 178.5t-204.5 75.5q-119 0 -201.5 -75t-82.5 -179z" />
<glyph unicode="&#x26;" horiz-adv-x="1673" d="M246 354q0 70 22 129t57 100.5t86 76t99.5 56t107.5 40.5q-63 63 -96 119.5t-33 123.5q0 88 59 154.5t149.5 98.5t195.5 32q71 0 142 -16.5t111.5 -33.5t92.5 -44l-53 -80q-140 82 -293 82q-124 0 -211.5 -51.5t-87.5 -139.5q0 -23 7 -47t23 -48.5t29.5 -43t38.5 -43.5 t38 -37t40 -36t33 -29l454 -412q132 115 244 270l84 -45q-127 -171 -260 -286l270 -244h-141l-203 182q-271 -207 -536 -207q-61 0 -123 12t-125 40.5t-111.5 70.5t-79 108.5t-30.5 147.5zM350 358q0 -64 25 -115.5t64 -83t90 -53t99 -30t95 -8.5q97 0 216.5 42t242.5 134 l-459 413l-37 33q-36 -11 -61.5 -20.5t-63 -26.5t-64 -34t-56.5 -43.5t-48.5 -55.5t-30.5 -68t-12 -84z" />
<glyph unicode="'" horiz-adv-x="419" d="M158 1165v172h104v-172l-20 -268h-64z" />
<glyph unicode="(" horiz-adv-x="741" d="M123 541q0 181 57.5 352t175 313.5t277.5 220.5l53 -67q-141 -70 -247 -201.5t-159 -291t-53 -326.5t53 -326.5t158.5 -290t247.5 -200.5l-53 -68q-161 78 -278 219.5t-174.5 312.5t-57.5 353z" />
<glyph unicode=")" horiz-adv-x="741" d="M57 -276q142 70 247.5 200.5t158.5 290t53 326.5t-53 326.5t-159 291t-247 201.5l52 67q160 -78 278 -220.5t176 -313.5t58 -352q0 -279 -136 -523.5t-376 -361.5z" />
<glyph unicode="*" horiz-adv-x="1159" d="M133 1081l25 72l377 -115l6 396h80l6 -396l374 115l25 -72l-375 -129l228 -323l-62 -45l-237 315l-238 -315l-61 45l227 323z" />
<glyph unicode="+" horiz-adv-x="1411" d="M168 469v86h489v459h95v-459h489v-86h-489v-459h-95v459h-489z" />
<glyph unicode="," horiz-adv-x="618" d="M170 -287q34 12 67.5 30t68 45t56 65t21.5 81q0 35 -15 60t-40 31q-36 -9 -47 -9q-34 0 -57 19.5t-23 48.5q0 31 22.5 51.5t57.5 20.5q75 0 128.5 -56.5t53.5 -142.5q0 -214 -264 -305z" />
<glyph unicode="-" horiz-adv-x="825" d="M150 463v94h526v-94h-526z" />
<glyph unicode="." horiz-adv-x="561" d="M186 70q0 36 27 61t68 25q39 0 65.5 -25t26.5 -61t-26.5 -61t-65.5 -25q-41 0 -68 25t-27 61z" />
<glyph unicode="/" horiz-adv-x="1009" d="M104 -244l703 1581h96l-702 -1581h-97z" />
<glyph unicode="0" horiz-adv-x="1470" d="M141 549q0 157 80 290t216 210t296 77t297.5 -77t219 -210.5t81.5 -289.5q0 -158 -81.5 -291.5t-219 -210t-297.5 -76.5t-296 76.5t-216 210t-80 291.5zM244 549q0 -132 66 -244t178.5 -177t244.5 -65t246 65t181 177.5t67 243.5q0 98 -40 188t-106.5 155t-157.5 103.5 t-190 38.5q-201 0 -345 -143t-144 -342z" />
<glyph unicode="1" horiz-adv-x="757" d="M43 944l352 154h103v-1098h-103v1004l-329 -144z" />
<glyph unicode="2" horiz-adv-x="1204" d="M135 0v106q0 81 27 150.5t71 118.5t108 89.5t128.5 66.5t142.5 47q5 1 37.5 9.5t44.5 12t44.5 13.5t47.5 16.5t43.5 19.5t43 24.5t34.5 29t29.5 35t17 40t7.5 47.5q0 68 -49.5 117t-122 70.5t-158.5 21.5q-65 0 -122 -12.5t-108.5 -38.5t-86.5 -49t-85 -62l-59 74 q59 44 96 68t96.5 54t125 44t141.5 14q114 0 210.5 -31t161 -100.5t64.5 -167.5q0 -62 -28.5 -113.5t-62.5 -82.5t-101 -61t-103 -41t-110 -32q-29 -8 -42 -12q-83 -24 -145 -52.5t-118 -71.5t-85.5 -105t-29.5 -141v-33h811v-82h-916z" />
<glyph unicode="3" horiz-adv-x="1374" d="M100 186l64 72q213 -195 504 -195q131 0 235.5 32.5t167 95.5t62.5 147q0 47 -22 84t-54.5 59t-73 36.5t-74 20t-61.5 5.5h-215v84h192q40 0 86.5 19t85.5 64.5t39 106.5q0 56 -31 99.5t-81 68t-105.5 37t-111.5 12.5q-222 0 -435 -188l-65 65q245 215 502 215 q57 0 115 -10t115.5 -33t102 -56t72 -84t27.5 -112q0 -87 -53 -147t-119 -82q33 -7 65.5 -18t70 -33.5t65.5 -51t46.5 -72.5t18.5 -97q0 -110 -76 -193t-203.5 -124.5t-287.5 -41.5q-333 0 -568 215z" />
<glyph unicode="4" horiz-adv-x="1366" d="M74 274v82l866 742h109v-740h227v-84h-227v-274h-105v274h-870zM223 358h721v611h-18q-87 -75 -703 -604v-7z" />
<glyph unicode="5" horiz-adv-x="1306" d="M121 147l55 72q201 -156 459 -156q82 0 157.5 17.5t139 52.5t101.5 95.5t38 138.5q0 71 -32 125t-87 84.5t-122 45.5t-144 15q-120 0 -210.5 -27t-194.5 -78l-68 50v516h858v-90h-762v-383q95 49 178.5 74.5t202.5 25.5q75 0 144 -12t131.5 -39.5t108.5 -68t73 -101.5 t27 -135q0 -83 -31 -151t-83 -113.5t-122.5 -76t-146.5 -44t-158 -13.5q-288 0 -512 176z" />
<glyph unicode="6" horiz-adv-x="1339" d="M145 530q0 136 49.5 250.5t132.5 189t190.5 115.5t225.5 41q222 0 392 -112l-56 -72q-139 92 -340 92q-97 0 -185.5 -34t-158 -96t-112 -157t-43.5 -210q98 71 230.5 123.5t285.5 52.5q113 0 203.5 -32t144.5 -84t82 -112.5t28 -122.5q0 -161 -141.5 -276t-353.5 -115 q-90 0 -174 22.5t-156.5 69t-127 112t-85.5 157t-31 198.5zM244 457q24 -186 159 -290t318 -104q164 0 276.5 91.5t112.5 210.5q0 46 -22 91t-64 84.5t-114.5 64t-164.5 24.5q-244 0 -501 -172z" />
<glyph unicode="7" horiz-adv-x="1200" d="M117 1008v90h964v-92l-637 -1006h-135l654 1008h-846z" />
<glyph unicode="8" horiz-adv-x="1345" d="M137 315q0 122 99.5 199t242.5 98q-125 19 -191.5 77.5t-66.5 154.5q0 70 41.5 126t109 89.5t145 51t155.5 17.5q79 0 156.5 -17.5t145 -51t109 -89.5t41.5 -126q0 -96 -66 -154.5t-192 -77.5q143 -21 242.5 -98t99.5 -199q0 -79 -47 -145.5t-123.5 -109t-171.5 -66 t-194 -23.5q-98 0 -192.5 23.5t-171.5 66t-124 109t-47 145.5zM250 324q0 -80 65 -142t159.5 -91.5t197.5 -29.5q105 0 200 30t159.5 91.5t64.5 141.5q0 61 -38.5 110t-101.5 78t-136 44t-148 15q-74 0 -146.5 -15t-135 -44t-101.5 -78t-39 -110zM334 834q0 -89 88 -137 t250 -48q163 0 251.5 48t88.5 137q0 52 -31 93.5t-81.5 66t-109 37.5t-118.5 13q-59 0 -116.5 -13t-108 -37.5t-82 -66t-31.5 -93.5z" />
<glyph unicode="9" horiz-adv-x="1333" d="M119 735q0 161 141 276t354 115q113 0 215.5 -36.5t183 -104.5t128 -176t47.5 -240q0 -136 -49.5 -250.5t-132 -189.5t-190 -116.5t-224.5 -41.5q-228 0 -393 113l55 74q138 -95 338 -95q97 0 186.5 34t159 96t111.5 157t43 209q-244 -172 -514 -172q-91 0 -168 21 t-130 55.5t-90 80t-54 94t-17 97.5zM223 733q0 -46 21.5 -90.5t63.5 -84t114 -63.5t164 -24q242 0 501 168q-24 186 -158.5 290.5t-316.5 104.5q-164 0 -276.5 -91t-112.5 -210z" />
<glyph unicode=":" horiz-adv-x="671" d="M244 70q0 36 26.5 61t65.5 25t66.5 -25t27.5 -61t-27.5 -61t-66.5 -25t-65.5 25t-26.5 61zM244 682q0 34 26.5 59t65.5 25t66.5 -25t27.5 -59q0 -36 -27.5 -61t-66.5 -25t-65.5 25t-26.5 61z" />
<glyph unicode=";" horiz-adv-x="698" d="M215 -287q35 11 69 29.5t68.5 45.5t56 65t21.5 81q0 35 -15.5 60t-41.5 31q-36 -9 -47 -9q-34 0 -57 19.5t-23 48.5q0 31 23 51.5t57 20.5q75 0 128.5 -56.5t53.5 -142.5q0 -213 -262 -305zM246 682q0 34 26.5 59t65.5 25t66.5 -25t27.5 -59q0 -36 -27.5 -61t-66.5 -25 t-65.5 25t-26.5 61z" />
<glyph unicode="&#x3c;" horiz-adv-x="1411" d="M168 463v100l1073 414v-100l-954 -357v-14l954 -354v-101z" />
<glyph unicode="=" horiz-adv-x="1411" d="M168 223v86h1073v-86h-1073zM168 717v88h1073v-88h-1073z" />
<glyph unicode="&#x3e;" horiz-adv-x="1411" d="M168 51v101l954 354v14l-954 357v100l1073 -414v-100z" />
<glyph unicode="?" horiz-adv-x="1232" d="M106 1143q71 70 136.5 114t170.5 75.5t234 31.5q91 0 167.5 -16t142 -50.5t102.5 -98t37 -150.5q0 -91 -44 -151.5t-132 -121.5q-29 -21 -78 -55t-79 -54.5t-68.5 -54t-62.5 -63t-44.5 -71.5t-28.5 -89h-96q7 57 29 108t47 86t68.5 74t75 61t85.5 59t82 57 q78 51 114.5 96t36.5 117q0 63 -29.5 109.5t-81 72.5t-112.5 38.5t-133 12.5q-110 0 -201 -28.5t-149.5 -68.5t-122.5 -102zM436 70q0 36 27.5 61t66.5 25q40 0 67.5 -25.5t27.5 -60.5t-27.5 -60.5t-67.5 -25.5q-39 0 -66.5 25t-27.5 61z" />
<glyph unicode="@" horiz-adv-x="2037" d="M125 510q0 155 53 293.5t147.5 243t219 181.5t273 116.5t304.5 39.5q176 0 325.5 -50.5t252 -137.5t160 -206.5t57.5 -256.5q0 -106 -34.5 -204t-90.5 -169.5t-126.5 -125t-144.5 -80.5t-141 -27q-89 0 -143.5 43.5t-54.5 116.5v16q-145 -174 -326 -174q-120 0 -204.5 82 t-84.5 238q0 113 48 217.5t122.5 175.5t162.5 113t169 42q98 0 165 -57.5t83 -140.5l57 168h90l-196 -596q-8 -21 -8 -43q0 -58 38 -91.5t101 -33.5q54 0 114 24t117.5 70.5t103.5 109t74.5 147t28.5 175.5q0 122 -52 229t-144 184.5t-226.5 122t-292.5 44.5 q-143 0 -278 -36t-249 -106.5t-199.5 -166t-134 -222t-48.5 -268.5q0 -141 48.5 -261t129.5 -203t186 -141.5t218 -86t227 -27.5q141 0 303 38.5t246 84.5l28 -64q-90 -50 -259.5 -92.5t-321.5 -42.5q-102 0 -206 22t-204.5 64t-187.5 109.5t-153 153t-104 200.5t-38 246z M664 459q0 -121 60.5 -183.5t152.5 -62.5q155 0 303 168l106 321q-13 86 -71.5 148.5t-145.5 62.5q-64 0 -134.5 -33.5t-131 -91.5t-100 -145t-39.5 -184z" />
<glyph unicode="A" horiz-adv-x="1536" d="M92 0l621 1337h110l621 -1337h-115l-211 461h-706l-211 -461h-109zM451 545h628l-307 674h-12z" />
<glyph unicode="B" horiz-adv-x="1677" d="M272 0v1337h727q218 0 336 -118q90 -93 90 -211q0 -102 -62 -186.5t-159 -108.5q126 -18 203.5 -113t77.5 -221q0 -153 -115 -262q-120 -117 -340 -117h-758zM377 92h655q167 0 260 90q86 86 86 199q0 107 -75 182q-83 86 -209 86h-717v-557zM377 735h676q111 0 188 74 q76 79 76 182q0 96 -70 166q-85 88 -256 88h-614v-510z" />
<glyph unicode="C" horiz-adv-x="1615" d="M150 670q0 142 56.5 270t153.5 222t233.5 149t289.5 55q170 0 325.5 -59.5t266.5 -161.5l-70 -72q-99 93 -237 147t-283 54q-131 0 -248 -48t-199.5 -129.5t-131 -193t-48.5 -233.5q0 -165 82.5 -304.5t227.5 -221t321 -81.5q156 0 297 62t248 166l69 -68 q-117 -114 -275.5 -183t-340.5 -69q-155 0 -292.5 55.5t-234.5 149.5t-153.5 222.5t-56.5 271.5z" />
<glyph unicode="D" horiz-adv-x="1679" d="M272 0v1337h529q182 0 304 -48.5t230 -147.5q92 -92 141.5 -213t49.5 -258q0 -138 -52 -262.5t-145 -217.5q-109 -97 -226.5 -143.5t-301.5 -46.5h-529zM377 92h420q109 0 193 21.5t138.5 54t118.5 88.5q80 81 125 188t45 226t-44 224.5t-124 184.5q-94 85 -194 125.5 t-258 40.5h-420v-1153z" />
<glyph unicode="E" horiz-adv-x="1474" d="M272 0v1337h1061v-92h-956v-487h579v-92h-579v-574h999v-92h-1104z" />
<glyph unicode="F" horiz-adv-x="1333" d="M272 0v1337h1031v-92h-926v-520h579v-92h-579v-633h-105z" />
<glyph unicode="G" horiz-adv-x="1681" d="M150 670q0 189 98 349.5t267 253.5t370 93q155 0 302 -53t267 -150l-74 -65q-96 82 -226.5 129t-266.5 47q-130 0 -247 -48t-200.5 -129t-132.5 -192.5t-49 -234.5q0 -121 47.5 -232t130.5 -194t202.5 -132t256.5 -49q136 0 265.5 45t221.5 121v383h-456v93h553v-525 q-117 -97 -273 -153t-317 -56q-152 0 -289.5 55.5t-236 149.5t-156 223t-57.5 271z" />
<glyph unicode="H" horiz-adv-x="1705" d="M272 0v1337h105v-569h952v569h105v-1337h-105v676h-952v-676h-105z" />
<glyph unicode="I" horiz-adv-x="649" d="M272 0v1337h105v-1337h-105z" />
<glyph unicode="J" horiz-adv-x="1396" d="M61 301l86 45q20 -42 40 -75.5t57.5 -74.5t81.5 -68.5t111.5 -46t148.5 -18.5q205 0 334 109.5t129 302.5v862h104v-862q0 -157 -73.5 -272.5t-200.5 -173.5t-291 -58q-96 0 -177.5 22t-134.5 54t-98 79.5t-69 86.5t-48 88z" />
<glyph unicode="K" horiz-adv-x="1515" d="M272 0v1337h105v-858l854 858h129l-512 -508l614 -829h-133l-557 760l-395 -398v-362h-105z" />
<glyph unicode="L" horiz-adv-x="1298" d="M272 0v1337h105v-1245h874v-92h-979z" />
<glyph unicode="M" horiz-adv-x="1884" d="M272 0v1337h123l547 -913h4l547 913h119v-1337h-105v1157h-10l-539 -897h-36l-539 897h-10v-1157h-101z" />
<glyph unicode="N" horiz-adv-x="1714" d="M272 0v1337h103l960 -1165h2v1165h105v-1337h-103l-960 1165h-2v-1165h-105z" />
<glyph unicode="O" horiz-adv-x="1759" d="M150 672q0 189 96 348.5t263.5 252.5t367.5 93q150 0 286 -55t234 -148t155.5 -221.5t57.5 -269.5q0 -191 -97.5 -352.5t-266 -255t-369.5 -93.5q-150 0 -285 55t-232 149t-153.5 223.5t-56.5 273.5zM260 672q0 -124 48 -236.5t130 -194.5t197 -130t242 -48 q128 0 244 48.5t199 130t132 194t49 236.5q0 122 -49 233.5t-132 192.5t-199 128.5t-244 47.5q-170 0 -312 -81t-223.5 -219t-81.5 -302z" />
<glyph unicode="P" horiz-adv-x="1527" d="M272 0v1337h701q233 0 356 -129q101 -104 101 -243q0 -150 -113 -260q-118 -115 -344 -115h-596v-590h-105zM377 682h596q178 0 268 88q84 84 84 195q0 103 -76 182q-90 98 -276 98h-596v-563z" />
<glyph unicode="Q" horiz-adv-x="1759" d="M150 672q0 189 96 348.5t263.5 252.5t367.5 93q150 0 286 -55t234 -148t155.5 -221.5t57.5 -269.5q0 -192 -99 -353t-266 -253l193 -263l-101 -32l-184 252q-136 -52 -276 -52q-150 0 -285 55t-232 149t-153.5 223.5t-56.5 273.5zM260 672q0 -124 48 -236.5t130 -194.5 t197 -130t242 -48q118 0 219 37l-201 277l100 35l195 -269q142 81 226.5 222t84.5 307q0 122 -49 233.5t-132 192.5t-199 128.5t-244 47.5q-170 0 -312 -81t-223.5 -219t-81.5 -302z" />
<glyph unicode="R" horiz-adv-x="1634" d="M272 0v1337h736q235 0 356 -127q100 -108 100 -252q0 -137 -92 -237t-246 -121l344 -600h-118l-332 590h-643v-590h-105zM377 682h684q134 0 216.5 81.5t82.5 197.5q0 109 -76 188q-93 96 -276 96h-631v-563z" />
<glyph unicode="S" horiz-adv-x="1529" d="M129 240l64 71q51 -50 104 -89t127 -78t168.5 -61t200.5 -22q140 0 250.5 33.5t180.5 108t70 180.5q0 51 -17 92t-42 68.5t-68 49t-81 33.5t-95.5 20.5t-96.5 12t-99 7.5q-78 4 -122 7t-116 12t-113.5 22t-93.5 37t-80 55.5t-47.5 79.5t-19.5 108q0 83 32.5 149.5 t84.5 108.5t122 70t140 39.5t143 11.5q181 0 330 -59t239 -136l-63 -71q-80 70 -211 123t-299 53q-76 0 -145.5 -15t-132 -46.5t-99.5 -88t-37 -131.5q0 -49 19 -86.5t53 -61t79.5 -39t99.5 -23t111 -12t117 -7.5h9q214 -13 320 -42q283 -80 284 -329q0 -107 -49 -190 t-134 -133t-192.5 -75.5t-232.5 -25.5q-385 0 -662 269z" />
<glyph unicode="T" horiz-adv-x="1263" d="M66 1245v92h1130v-92h-512v-1245h-104v1245h-514z" />
<glyph unicode="U" horiz-adv-x="1648" d="M244 475v862h104v-862q0 -193 133 -302.5t342 -109.5q210 0 343.5 109.5t133.5 302.5v862h105v-862q0 -235 -163 -369.5t-419 -134.5q-167 0 -297 58t-206 173.5t-76 272.5z" />
<glyph unicode="V" horiz-adv-x="1536" d="M88 1337h119l557 -1210h12l557 1210h113l-625 -1337h-108z" />
<glyph unicode="W" horiz-adv-x="2064" d="M109 1337h114l379 -1185h8l377 1185h94l377 -1185h10l377 1185h111l-432 -1337h-119l-369 1153h-8l-369 -1153h-118z" />
<glyph unicode="X" horiz-adv-x="1425" d="M74 0l575 698l-516 639h131l453 -565l459 565h124l-522 -635l570 -702h-131l-504 629l-514 -629h-125z" />
<glyph unicode="Y" horiz-adv-x="1357" d="M78 1337h131l473 -602l475 602h123l-549 -696v-641h-104v641z" />
<glyph unicode="Z" horiz-adv-x="1406" d="M96 0v68l1018 1177h-936v92h1082v-67l-1018 -1178h1038v-92h-1184z" />
<glyph unicode="[" horiz-adv-x="686" d="M217 -315v1726h387v-84h-291v-1558h291v-84h-387z" />
<glyph unicode="\" horiz-adv-x="1017" d="M131 1337h96l703 -1581h-96z" />
<glyph unicode="]" horiz-adv-x="686" d="M82 -231h291v1558h-291v84h387v-1726h-387v84z" />
<glyph unicode="^" horiz-adv-x="1411" d="M213 434l440 821h109l436 -821h-108l-377 721h-13l-378 -721h-109z" />
<glyph unicode="_" horiz-adv-x="1228" d="M-12 -205h1253v-69h-1253v69z" />
<glyph unicode="`" horiz-adv-x="1024" d="M299 1401l109 8l188 -299l-86 -8z" />
<glyph unicode="a" d="M115 295q0 135 112 223t310 88q113 0 218 -32.5t163 -102.5v178q0 57 -26.5 100t-72 68t-99.5 37t-114 12q-109 0 -205.5 -35t-158.5 -79l-37 77q185 119 405 119q77 0 145.5 -14.5t129 -45t96 -85.5t35.5 -129v-506q0 -106 35 -168h-99q-30 45 -34 154q-42 -40 -97 -76 t-147.5 -67t-188.5 -31q-171 0 -270.5 89t-99.5 226zM213 295q0 -101 77.5 -167.5t213.5 -66.5q78 0 156 23.5t130.5 55.5t87 59.5t40.5 40.5v147q-49 71 -150.5 106t-218.5 35q-164 0 -250 -65t-86 -168z" />
<glyph unicode="b" horiz-adv-x="1277" d="M193 0q18 93 18 207v1227h96v-654q80 80 176 124t193 44q128 0 234.5 -59t170.5 -170.5t64 -253.5q0 -109 -39.5 -201.5t-106 -155.5t-156.5 -98t-190 -35q-117 0 -211.5 54t-142.5 118q0 -81 -14 -147h-92zM307 225q20 -23 46 -46t69.5 -53t102 -48.5t120.5 -18.5 q165 0 279 113t114 293q0 176 -106 286.5t-262 110.5q-93 0 -188 -43.5t-175 -118.5v-475z" />
<glyph unicode="c" horiz-adv-x="1153" d="M133 465q0 142 68 253.5t181.5 170.5t250.5 59q233 0 399 -153l-65 -66q-69 66 -156 99.5t-178 33.5q-167 0 -281 -110.5t-114 -286.5q0 -180 118 -292t287 -112q81 0 156.5 29t116.5 59.5t73 65.5l68 -59q-19 -23 -50.5 -49t-84 -58t-128.5 -53t-159 -21 q-135 0 -249 59.5t-183.5 173t-69.5 257.5z" />
<glyph unicode="d" horiz-adv-x="1280" d="M135 465q0 107 38.5 198t103.5 153t152.5 97t184.5 35q95 0 187.5 -41.5t169.5 -118.5v646h98v-1227q0 -111 16 -207h-92q-11 62 -14 147q-48 -64 -146 -118t-219 -54q-98 0 -185.5 35t-152.5 98t-103 155.5t-38 201.5zM242 465q0 -181 109.5 -293.5t271.5 -112.5 q64 0 124.5 18.5t105 48.5t71.5 53t47 46v475q-77 76 -167.5 119t-180.5 43q-161 0 -271 -110.5t-110 -286.5z" />
<glyph unicode="e" d="M133 451q0 209 142.5 353t349.5 144q84 0 163 -26.5t147 -78.5t110.5 -139.5t44.5 -197.5q0 -16 -3 -31h-858v-22q0 -168 108 -280t290 -112q112 0 208 41.5t162 110.5l66 -61q-78 -79 -194 -128t-251 -49q-220 0 -352.5 136t-132.5 340zM240 551h743q-2 77 -35.5 138.5 t-86 99t-114.5 57.5t-126 20q-143 0 -247 -89t-134 -226z" />
<glyph unicode="f" horiz-adv-x="710" d="M86 846v78h197v215q0 85 25 148.5t67 98.5t89.5 51.5t100.5 16.5q62 0 125.5 -20t102.5 -58l-27 -76q-31 32 -83.5 51t-100.5 19q-86 0 -143.5 -57t-57.5 -174v-215h315v-78h-315v-846h-98v846h-197z" />
<glyph unicode="g" horiz-adv-x="1280" d="M135 459q0 145 67.5 257.5t179 172t245.5 59.5q117 0 210.5 -56t141.5 -120q3 85 27 152h92q-29 -91 -29 -207v-791q0 -169 -120 -280t-337 -111q-262 0 -417 166l61 57q130 -141 356 -141q171 0 265 87t94 222v215q-169 -166 -369 -166q-195 0 -331 135.5t-136 348.5z M242 459q0 -178 106 -289t262 -111q93 0 186.5 44t174.5 120v475q-18 22 -44.5 45.5t-69 52.5t-101.5 47.5t-121 18.5q-167 0 -280 -111.5t-113 -291.5z" />
<glyph unicode="h" horiz-adv-x="1239" d="M209 0v1434h96v-654q71 71 167 119.5t208 48.5q163 0 263.5 -90t100.5 -231v-627h-98v627q0 102 -76 168.5t-196 66.5q-195 0 -369 -170v-692h-96z" />
<glyph unicode="i" horiz-adv-x="514" d="M186 1315q0 28 19.5 46.5t50.5 18.5t51.5 -18.5t20.5 -46.5q0 -29 -20.5 -47.5t-51.5 -18.5q-30 0 -50 19t-20 47zM209 0v924h96v-924h-96z" />
<glyph unicode="j" horiz-adv-x="514" d="M-29 -387q44 3 82.5 18t75.5 44t58.5 82.5t21.5 125.5v1041h96v-1041q0 -74 -19 -134t-50 -99t-72 -65.5t-83 -38t-85 -11.5zM186 1315q0 28 19.5 46.5t50.5 18.5t51.5 -18.5t20.5 -46.5q0 -29 -20.5 -47.5t-51.5 -18.5q-30 0 -50 19t-20 47z" />
<glyph unicode="k" horiz-adv-x="1126" d="M209 0v1434h98v-1010l584 500h133l-381 -320l440 -604h-120l-392 543l-264 -224v-319h-98z" />
<glyph unicode="l" horiz-adv-x="552" d="M227 0v1434h99v-1434h-99z" />
<glyph unicode="m" horiz-adv-x="1818" d="M180 924h92q23 -73 29 -150q153 174 346 174q109 0 186 -52.5t117 -135.5q62 81 152.5 134.5t202.5 53.5q139 0 230 -91t91 -230v-627h-98v627q0 102 -66.5 168.5t-171.5 66.5q-168 0 -321 -170v-692h-99v690q-19 73 -79.5 122.5t-157.5 49.5q-167 0 -324 -170v-692h-98 v717q0 110 -31 207z" />
<glyph unicode="n" horiz-adv-x="1241" d="M180 924h92q22 -63 29 -152q172 176 389 176q157 0 258 -90.5t101 -230.5v-627h-99v627q0 102 -76.5 168.5t-195.5 66.5q-199 0 -369 -170v-692h-98v715q0 112 -31 209z" />
<glyph unicode="o" horiz-adv-x="1263" d="M133 465q0 132 65.5 243t179.5 175.5t251 64.5q138 0 253.5 -64.5t181.5 -175.5t66 -243q0 -135 -66 -247.5t-181.5 -177.5t-253.5 -65q-137 0 -251 65t-179.5 177.5t-65.5 247.5zM233 465q0 -170 115 -289t281 -119q169 0 285 119t116 289q0 166 -116 283.5t-285 117.5 q-166 0 -281 -118t-115 -283z" />
<glyph unicode="p" horiz-adv-x="1280" d="M184 924h92q22 -73 25 -150q71 76 170 125t207 49q197 0 333 -135.5t136 -351.5q0 -143 -67.5 -255t-180 -171.5t-246.5 -59.5q-106 0 -195.5 48.5t-148.5 117.5v-577h-98v1141q0 116 -27 219zM309 225q58 -64 145 -115t193 -51q165 0 279 111.5t114 290.5t-107 290 t-263 111q-100 0 -193.5 -47t-167.5 -117v-473z" />
<glyph unicode="q" horiz-adv-x="1280" d="M135 461q0 143 65.5 255.5t174.5 172t239 59.5q104 0 200.5 -49t164.5 -125q3 70 27 150h92q-29 -96 -29 -219v-1141h-98v577q-58 -69 -152 -117.5t-205 -48.5q-201 0 -340 135.5t-139 350.5zM242 461q0 -179 109.5 -290.5t271.5 -111.5q109 0 200 51.5t148 114.5v473 q-68 70 -159 117t-189 47q-160 0 -270.5 -111t-110.5 -290z" />
<glyph unicode="r" horiz-adv-x="796" d="M180 924h92q23 -72 29 -166q133 190 297 190q48 0 90 -15.5t64 -45.5l-37 -84q-21 25 -60 39t-77 14q-132 0 -269 -188v-668h-98v717q0 110 -31 207z" />
<glyph unicode="s" horiz-adv-x="1114" d="M119 121l41 72q40 -29 74.5 -49.5t85.5 -43.5t111.5 -35t127.5 -12q146 0 243 55.5t97 157.5q0 34 -12.5 61t-30 44.5t-48 31t-55.5 21t-63.5 12.5t-61.5 6.5t-59 3.5q-54 3 -84 5t-79.5 9t-79 16t-65.5 26.5t-55.5 40.5t-33.5 58t-14 79q0 73 33.5 128t89.5 84.5 t117.5 43.5t129.5 14q119 0 226.5 -38t169.5 -85l-41 -73q-59 44 -154.5 80t-200.5 36q-49 0 -96 -10t-87.5 -30.5t-65.5 -56.5t-25 -83q0 -29 11 -52t26.5 -38t44 -26.5t51 -17.5t61 -10.5t60 -5.5t61.5 -3q44 -2 74 -4t79 -8.5t82 -17t72 -30.5t63 -46t40 -66.5t16 -90.5 q0 -99 -60.5 -168.5t-156 -101t-217.5 -31.5q-246 0 -442 148z" />
<glyph unicode="t" horiz-adv-x="786" d="M68 846v78h196v286h98v-286h328v-78h-328v-621q0 -86 46 -127t112 -41q46 0 100 15.5t82 36.5l19 -74q-33 -27 -95.5 -45.5t-121.5 -18.5q-42 0 -82.5 13.5t-77 41.5t-58.5 79.5t-22 119.5v621h-196z" />
<glyph unicode="u" horiz-adv-x="1239" d="M193 295v629h98v-629q0 -101 76.5 -168.5t195.5 -67.5q195 0 369 170v695h96v-717q0 -111 16 -207h-90q-14 66 -14 150q-175 -175 -389 -175q-156 0 -257 91t-101 229z" />
<glyph unicode="v" horiz-adv-x="1077" d="M84 924h109l342 -797h14l346 797h100l-407 -924h-99z" />
<glyph unicode="w" horiz-adv-x="1570" d="M96 924h107l256 -801h8l266 801h109l266 -801h10l250 801h107l-310 -924h-112l-262 788h-11l-262 -788h-112z" />
<glyph unicode="x" horiz-adv-x="1083" d="M80 0l403 473l-383 451h123l318 -389l319 389h121l-381 -451l404 -473h-121l-342 410l-338 -410h-123z" />
<glyph unicode="y" horiz-adv-x="1114" d="M82 924h108l351 -805h6l389 805h98l-669 -1360h-99l223 446z" />
<glyph unicode="z" horiz-adv-x="1056" d="M92 0v61l699 785h-629v78h760v-62l-699 -784h717v-78h-848z" />
<glyph unicode="{" horiz-adv-x="753" d="M59 512v106q100 0 174 68t74 178v211q1 72 8.5 123t26.5 89.5t45.5 62t69.5 38t95.5 20t127.5 5.5v-84q-67 0 -110 -6t-77 -21.5t-52 -45t-27.5 -73t-10.5 -108.5v-211q0 -124 -73.5 -204.5t-173.5 -86.5v-16q245 -4 245 -281v-260q0 -80 12.5 -127t47 -74.5t84.5 -36.5 t135 -9v-84q-93 0 -152.5 8t-105.5 28t-70 58.5t-35.5 94.5t-11.5 142v260q0 69 -20 117.5t-56 73.5t-77 35t-93 10z" />
<glyph unicode="|" horiz-adv-x="716" d="M313 -623v2468h93v-2468h-93z" />
<glyph unicode="}" horiz-adv-x="753" d="M76 -231q83 0 132 9t83.5 36t47.5 75t13 127v260q0 273 246 281v16q-100 6 -174 86.5t-74 204.5v211q-2 81 -15 129.5t-47 77t-82.5 38t-129.5 9.5v84q75 0 126.5 -5.5t94.5 -20t69.5 -38t45 -62t26 -89.5t8.5 -123v-211q0 -110 74 -178t174 -68v-106q-52 0 -92.5 -10 t-77 -35t-56 -73t-19.5 -118v-260q0 -107 -16.5 -170t-62 -100t-112.5 -49t-182 -12v84z" />
<glyph unicode="~" horiz-adv-x="1411" d="M131 473q89 98 167 148.5t159 50.5q85 0 145.5 -33.5t120.5 -91.5q37 -35 57.5 -52.5t64 -37t89.5 -19.5q61 0 131.5 42t138.5 118l76 -47q-86 -99 -177 -152t-173 -53q-49 0 -91 11.5t-79 36.5t-54.5 40t-50.5 47q-35 31 -58.5 48.5t-62.5 34t-79 16.5q-111 0 -252 -154 z" />
<glyph unicode="&#xa1;" horiz-adv-x="548" d="M139 860q0 36 27.5 61t66.5 25t66 -25t27 -61t-27 -61t-66 -25t-66.5 25t-27.5 61zM176 -84l21 625h71l21 -625v-324h-113v324z" />
<glyph unicode="&#xa2;" horiz-adv-x="1132" d="M119 410q0 188 134.5 307t332.5 119q8 0 24.5 -1t24.5 -1l43 188h76l-45 -199q153 -28 268 -121l-64 -63q-94 76 -223 102l-151 -675q45 -5 57 -5q108 0 191 41t137 93l67 -60q-18 -20 -47 -42t-78 -50.5t-120.5 -47t-149.5 -18.5q-32 0 -76 7l-55 -252h-72l58 264 q-146 40 -239 150.5t-93 263.5zM223 410q0 -121 68 -208t178 -122l147 670q-10 2 -30 2q-153 0 -258 -95t-105 -247z" />
<glyph unicode="&#xa3;" horiz-adv-x="1462" d="M137 0v84h74q85 0 130 18.5t67 71.5t22 154v223h-293v76h293v178q0 79 36.5 141.5t97.5 100.5t136 57.5t156 19.5q87 0 208.5 -37t227.5 -98l-51 -71q-95 51 -202.5 82.5t-182.5 31.5q-61 0 -117 -13.5t-102.5 -40t-74 -71.5t-27.5 -102v-178h538v-76h-538v-223 q0 -113 -34 -169t-112 -75h903v-84h-1155z" />
<glyph unicode="&#xa4;" horiz-adv-x="1509" d="M156 35l161 149q-127 149 -127 344t127 344l-161 150l67 68l160 -150q158 139 369 139q212 0 372 -141l162 152l68 -68l-164 -152q129 -152 129 -342q0 -194 -129 -342l164 -151l-68 -68l-162 150q-163 -140 -372 -140t-369 140l-160 -150zM295 528q0 -124 61.5 -229 t167 -166t228.5 -61q190 0 326 134t136 322q0 187 -136.5 322t-325.5 135q-92 0 -176.5 -36.5t-146 -98t-98 -146t-36.5 -176.5z" />
<glyph unicode="&#xa5;" horiz-adv-x="1492" d="M154 399v68h540v55l-108 127h-432v68h374l-321 381h131l414 -482l409 482h123l-321 -381h376v-68h-434l-106 -127v-55h540v-68h-540v-399h-105v399h-540z" />
<glyph unicode="&#xa6;" horiz-adv-x="716" d="M313 399h93v-860h-93v860zM313 780v846h93v-846h-93z" />
<glyph unicode="&#xa7;" horiz-adv-x="1419" d="M125 428q0 117 88 205q76 72 186 104q-33 15 -51 35q-37 43 -37 109t37.5 116t98.5 77t128 40.5t138 13.5q231 0 405 -116l-47 -72q-73 48 -168 76t-192 28q-48 0 -95.5 -7.5t-94.5 -24.5t-76 -50.5t-29 -78.5q0 -48 30 -72q12 -10 27 -18.5t39 -14.5t39.5 -10.5t50.5 -9 t48.5 -6t57.5 -6t56 -5.5q152 -16 265 -49.5t183 -101.5q86 -80 86 -197q0 -123 -92 -209q-69 -64 -186 -98q34 -15 59 -43q33 -42 33 -102q0 -52 -25 -95t-65 -70t-93.5 -45.5t-107 -26t-108.5 -7.5q-110 0 -218 30.5t-190 84.5l47 69q74 -47 169.5 -74.5t193.5 -27.5 q48 0 95.5 8t94 25t75 50.5t28.5 78.5t-27 69q-13 12 -34.5 22t-41 16t-55.5 11.5t-57.5 8t-68 7.5t-67.5 7q-320 35 -442 147q-90 81 -90 199zM229 440q0 -91 68 -153q98 -85 362 -115q221 -21 293 -45q103 26 164 82q78 72 78 174q0 86 -64 147q-101 96 -368 121 q-214 18 -295 45q-104 -29 -164 -86q-74 -71 -74 -170z" />
<glyph unicode="&#xa8;" horiz-adv-x="1024" d="M252 1206q0 27 19 45.5t48 18.5q30 0 50 -18.5t20 -45.5q0 -28 -19.5 -45.5t-50.5 -17.5q-29 0 -48 18t-19 45zM635 1206q0 27 19 45.5t48 18.5t48.5 -18.5t19.5 -45.5q0 -28 -19.5 -45.5t-48.5 -17.5t-48 18t-19 45z" />
<glyph unicode="&#xa9;" horiz-adv-x="2052" d="M121 557q0 169 72 322.5t193 264t288 175.5t350 65q184 0 351 -65t288.5 -175.5t193.5 -264t72 -322.5q0 -170 -72 -323.5t-193.5 -264.5t-288.5 -176t-351 -65q-183 0 -350 65t-288 176t-193 264.5t-72 323.5zM203 557q0 -155 65.5 -295.5t175.5 -242.5t262 -162 t318 -60q168 0 320.5 60t263 162t176 242.5t65.5 295.5q0 154 -65.5 294.5t-176 242t-263 161.5t-320.5 60q-166 0 -318 -60t-262 -161.5t-175.5 -242t-65.5 -294.5zM547 557q0 188 139 315t361 127q106 0 213 -40.5t188 -106.5l-39 -66q-75 64 -170 101t-192 37 q-181 0 -295.5 -106t-114.5 -261q0 -150 120 -244t296 -94q122 0 203 32.5t163 94.5l39 -65q-89 -69 -177.5 -104.5t-227.5 -35.5q-138 0 -253 51t-184 147t-69 218z" />
<glyph unicode="&#xaa;" horiz-adv-x="927" d="M82 670q0 100 87.5 165.5t242.5 65.5q85 0 164.5 -22.5t123.5 -71.5v125q0 77 -68.5 115t-166.5 38q-85 0 -161.5 -25.5t-125.5 -58.5l-31 66q54 36 139 63t183 27q60 0 114 -11t101 -33.5t74.5 -64t27.5 -96.5v-377q0 -74 27 -124h-86q-23 37 -27 108 q-53 -49 -138.5 -88t-190.5 -39q-133 0 -211 67.5t-78 170.5zM168 670q0 -70 58.5 -117t160.5 -47q59 0 118.5 17t99 39.5t65 42t30.5 28.5v102q-79 99 -276 99q-126 0 -191 -45.5t-65 -118.5z" />
<glyph unicode="&#xab;" horiz-adv-x="1054" d="M125 463v57l227 252h117l-248 -272v-17l248 -270h-117zM526 481v21l244 270h115l-248 -272v-17l248 -270h-115z" />
<glyph unicode="&#xac;" horiz-adv-x="1411" d="M168 735v88h1073v-612h-96v524h-977z" />
<glyph unicode="&#xad;" horiz-adv-x="825" d="M150 463v94h526v-94h-526z" />
<glyph unicode="&#xae;" horiz-adv-x="1310" d="M137 897q0 95 40 182t108 151t164 102t202 38q143 0 263.5 -64.5t190 -173.5t69.5 -235q0 -130 -69.5 -239t-190 -171.5t-263.5 -62.5q-216 0 -365 137.5t-149 335.5zM188 897q0 -179 134 -303.5t329 -124.5q129 0 237.5 57t171 155.5t62.5 215.5q0 115 -62.5 213.5 t-171.5 156.5t-237 58q-127 0 -234 -58t-168 -156.5t-61 -213.5zM432 670v481h311q73 0 121.5 -38.5t48.5 -98.5q0 -50 -34 -86.5t-93 -46.5l134 -211h-66l-127 204h-235v-204h-60zM492 926h256q48 0 78 26t30 62q0 38 -33 64t-80 26h-251v-178z" />
<glyph unicode="&#xaf;" horiz-adv-x="1024" d="M260 1180v75h504v-75h-504z" />
<glyph unicode="&#xb0;" horiz-adv-x="1030" d="M127 944q0 148 101.5 247t281.5 99q183 0 289 -99.5t106 -246.5q0 -143 -106.5 -242.5t-288.5 -99.5q-180 0 -281.5 99t-101.5 243zM215 944q0 -113 78 -189.5t217 -76.5q141 0 224 77t83 189q0 113 -83 190.5t-224 77.5q-139 0 -217 -77t-78 -191z" />
<glyph unicode="&#xb1;" horiz-adv-x="1411" d="M168 0v86h1073v-86h-1073zM168 594v88h489v387h95v-387h489v-88h-489v-387h-95v387h-489z" />
<glyph unicode="&#xb2;" horiz-adv-x="974" d="M90 451v90q0 276 404 381q6 1 35 8.5t41 11t41 12t44 16t39 19t37 24.5t27 28.5t20 35t6 41.5q0 53 -41.5 90t-101.5 52.5t-131 15.5q-105 0 -182.5 -33.5t-155.5 -95.5l-53 65q49 35 81 55.5t82 45t106 36t120 11.5q96 0 178 -25t137.5 -81.5t55.5 -135.5 q0 -31 -7.5 -58.5t-24.5 -50t-34 -40t-46 -33.5t-49.5 -26.5t-56.5 -22.5t-55 -17.5t-56 -15.5t-50 -14q-69 -18 -121.5 -41t-99.5 -57t-72 -83t-25 -110v-23h684v-75h-776z" />
<glyph unicode="&#xb3;" horiz-adv-x="1114" d="M70 602l55 64q175 -154 426 -154q110 0 197 24t139.5 73t52.5 116q0 45 -26 79t-65.5 50t-75 23.5t-64.5 7.5h-191v73h178q31 0 67 15.5t66.5 52t30.5 82.5q0 58 -45.5 97.5t-105.5 55t-125 15.5q-194 0 -369 -148l-55 56q204 176 424 176q62 0 124 -13.5t118 -40.5 t91 -75t35 -109q0 -70 -42.5 -119t-94.5 -67q26 -5 52.5 -14t57 -26.5t53.5 -40.5t38.5 -58.5t15.5 -77.5q0 -135 -136.5 -213t-344.5 -78q-289 0 -481 174z" />
<glyph unicode="&#xb4;" horiz-adv-x="1024" d="M426 1110l188 299l107 -8l-209 -299z" />
<glyph unicode="&#xb5;" horiz-adv-x="1218" d="M182 -471v1386h97v-634q3 -98 79 -162t195 -64q193 0 367 170v690h98v-708q0 -123 14 -207h-90q-14 66 -14 145q-174 -174 -389 -174q-88 0 -155.5 34.5t-104.5 98.5v-575h-97z" />
<glyph unicode="&#xb6;" horiz-adv-x="1708" d="M104 954q0 383 527 383h842v-1759h-89v1675h-262v-1675h-88v975h-465q-67 0 -131 13.5t-125.5 44.5t-107 76t-73.5 114t-28 153zM201 954q0 -82 33.5 -145.5t88 -99.5t117.5 -54t129 -18h465v616h-403q-430 0 -430 -299z" />
<glyph unicode="&#xb7;" horiz-adv-x="1411" d="M602 512q0 40 30 67t73 27t71.5 -27t28.5 -67q0 -38 -28.5 -64t-71.5 -26q-42 0 -72.5 26t-30.5 64z" />
<glyph unicode="&#xb8;" horiz-adv-x="1024" d="M233 -412l17 58q193 -45 282 -45q101 0 163.5 30.5t62.5 87.5q0 53 -38.5 76t-92.5 23q-43 0 -121 -21l-37 37l59 180h70l-51 -159q66 16 110 16q76 0 132.5 -38t56.5 -116q0 -84 -86.5 -131t-222.5 -47q-132 0 -304 49z" />
<glyph unicode="&#xb9;" horiz-adv-x="604" d="M16 1214l295 123h95v-886h-95v802l-274 -112z" />
<glyph unicode="&#xba;" horiz-adv-x="956" d="M88 797q0 148 115.5 254t273.5 106q159 0 275 -106t116 -254q0 -152 -115.5 -258.5t-275.5 -106.5q-158 0 -273.5 106.5t-115.5 258.5zM176 797q0 -122 86.5 -206.5t214.5 -84.5t215.5 84.5t87.5 206.5q0 119 -87.5 202.5t-215.5 83.5t-214.5 -83.5t-86.5 -202.5z" />
<glyph unicode="&#xbb;" horiz-adv-x="1054" d="M170 213l248 270v17l-248 272h117l241 -270v-21l-241 -268h-117zM586 213l248 270v17l-248 272h116l230 -252v-57l-230 -250h-116z" />
<glyph unicode="&#xbc;" horiz-adv-x="2084" d="M14 1214l297 123h92v-886h-92v802l-276 -112zM408 0l759 1337h84l-757 -1337h-86zM1008 219v72l735 596h94v-592h184v-76h-184v-219h-92v219h-737zM1143 295h602v477h-16q-156 -125 -586 -473v-4z" />
<glyph unicode="&#xbd;" horiz-adv-x="2029" d="M14 1214l297 123h92v-886h-92v802l-276 -112zM408 0l759 1337h84l-757 -1337h-86zM1143 0v90q0 276 403 381q4 1 34.5 8.5t41.5 11t41 12.5t44.5 16.5t39 19t37 24t27 28.5t20.5 35.5t6 41.5q0 53 -41.5 89.5t-101.5 52t-131 15.5q-105 0 -182.5 -33.5t-155.5 -95.5 l-54 66q48 35 81 55.5t83 44.5t106 35.5t120 11.5q96 0 177 -24.5t136 -81t55 -135.5q0 -28 -7 -53.5t-18 -45.5t-30 -38.5t-36 -32t-44.5 -27t-46.5 -22t-51 -19t-49.5 -15.5t-50 -13.5t-44.5 -12.5q-69 -18 -121.5 -41t-99 -57t-71.5 -83t-25 -110v-22h684v-76h-776z" />
<glyph unicode="&#xbe;" horiz-adv-x="2598" d="M70 602l55 64q175 -154 426 -154q110 0 197 24t139.5 73t52.5 116q0 45 -26 79t-65.5 50t-75 23.5t-64.5 7.5h-191v73h178q31 0 67 15.5t66.5 52t30.5 82.5q0 58 -45.5 97.5t-105.5 55t-125 15.5q-194 0 -369 -148l-55 56q204 176 424 176q62 0 124 -13.5t118 -40.5 t91 -75t35 -109q0 -70 -42.5 -119t-94.5 -67q26 -5 52.5 -14t57 -26.5t53.5 -40.5t38.5 -58.5t15.5 -77.5q0 -135 -136.5 -213t-344.5 -78q-289 0 -481 174zM922 0l759 1337h84l-757 -1337h-86zM1522 219v72l735 596h94v-592h184v-76h-184v-219h-92v219h-737zM1657 295h602 v477h-16q-156 -125 -586 -473v-4z" />
<glyph unicode="&#xbf;" horiz-adv-x="1230" d="M133 -119q0 91 44 151.5t132 121.5q29 21 78 55t79 54.5t68.5 54t62.5 63t44.5 71.5t28.5 89h96q-7 -57 -29 -108t-47 -86t-68.5 -74t-75 -61t-85.5 -59t-82 -57q-79 -52 -115.5 -97t-36.5 -116q0 -63 29.5 -109.5t81 -72.5t113 -38.5t133.5 -12.5q160 0 268 51t205 147 l65 -61q-52 -51 -100.5 -87t-113 -68.5t-146.5 -49t-180 -16.5q-91 0 -167.5 16t-142 50.5t-102.5 98t-37 150.5zM604 860q0 36 27.5 61t66.5 25q40 0 67.5 -25.5t27.5 -60.5t-27.5 -60.5t-67.5 -25.5q-39 0 -66.5 25t-27.5 61z" />
<glyph unicode="&#xc0;" horiz-adv-x="1536" d="M92 0l621 1337h110l621 -1337h-115l-211 461h-706l-211 -461h-109zM451 545h628l-307 674h-12zM465 1747l127 10l295 -235l-88 -9z" />
<glyph unicode="&#xc1;" horiz-adv-x="1536" d="M92 0l621 1337h110l621 -1337h-115l-211 461h-706l-211 -461h-109zM451 545h628l-307 674h-12zM647 1522l295 235l125 -10l-334 -234z" />
<glyph unicode="&#xc2;" horiz-adv-x="1536" d="M92 0l621 1337h110l621 -1337h-115l-211 461h-706l-211 -461h-109zM451 545h628l-307 674h-12zM485 1522l232 235h102l230 -235l-76 -9l-205 183l-207 -183z" />
<glyph unicode="&#xc3;" horiz-adv-x="1536" d="M92 0l621 1337h110l621 -1337h-115l-211 461h-706l-211 -461h-109zM451 545h628l-307 674h-12zM455 1563q43 67 84 101t92 34q33 0 62 -15.5t75 -50.5q73 -57 123 -57q31 0 58 25t59 71l61 -35q-41 -65 -82.5 -100t-93.5 -35q-74 0 -143 58q-32 25 -44.5 34t-33 19 t-37.5 10t-32 -7t-32 -25.5t-24.5 -28t-26.5 -35.5z" />
<glyph unicode="&#xc4;" horiz-adv-x="1536" d="M92 0l621 1337h110l621 -1337h-115l-211 461h-706l-211 -461h-109zM451 545h628l-307 674h-12zM508 1614q0 27 19 45t48 18q30 0 50 -18t20 -45q0 -28 -19.5 -46t-50.5 -18q-29 0 -48 18t-19 46zM891 1614q0 27 19 45t48 18t48.5 -18.5t19.5 -44.5q0 -28 -19.5 -46 t-48.5 -18t-48 18t-19 46z" />
<glyph unicode="&#xc5;" horiz-adv-x="1536" d="M92 0l621 1337h110l621 -1337h-115l-211 461h-706l-211 -461h-109zM451 545h628l-307 674h-12zM543 1610q0 79 60 132.5t161 53.5q102 0 163.5 -53.5t61.5 -132.5t-61.5 -132t-163.5 -53q-101 0 -161 53t-60 132zM606 1610q0 -58 43.5 -95.5t114.5 -37.5q70 0 115 38 t45 95q0 59 -45 98t-115 39q-71 0 -114.5 -39t-43.5 -98z" />
<glyph unicode="&#xc6;" horiz-adv-x="2232" d="M16 0l983 1337h1092v-92h-956v-493h581v-95h-581v-565h999v-92h-1102v461h-561l-338 -461h-117zM530 545h502v674h-8z" />
<glyph unicode="&#xc7;" horiz-adv-x="1615" d="M150 670q0 142 56.5 270t153.5 222t233.5 149t289.5 55q170 0 325.5 -59.5t266.5 -161.5l-70 -72q-99 93 -237 147t-283 54q-131 0 -248 -48t-199.5 -129.5t-131 -193t-48.5 -233.5q0 -165 82.5 -304.5t227.5 -221t321 -81.5q156 0 297 62t248 166l69 -68 q-117 -114 -275.5 -183t-340.5 -69h-13l-36 -116q66 16 110 16q76 0 132.5 -38t56.5 -116q0 -84 -87 -131t-223 -47q-131 0 -303 49l17 58q193 -45 282 -45q101 0 163.5 30.5t62.5 87.5q0 53 -38.5 76t-92.5 23q-43 0 -121 -21l-37 37l45 141q-284 28 -469.5 226t-185.5 469 z" />
<glyph unicode="&#xc8;" horiz-adv-x="1474" d="M272 0v1337h1061v-92h-956v-487h579v-92h-579v-574h999v-92h-1104zM504 1747l127 10l295 -235l-88 -9z" />
<glyph unicode="&#xc9;" horiz-adv-x="1474" d="M272 0v1337h1061v-92h-956v-487h579v-92h-579v-574h999v-92h-1104zM686 1522l295 235l125 -10l-334 -234z" />
<glyph unicode="&#xca;" horiz-adv-x="1474" d="M272 0v1337h1061v-92h-956v-487h579v-92h-579v-574h999v-92h-1104zM524 1522l232 235h102l229 -235l-75 -9l-205 183l-207 -183z" />
<glyph unicode="&#xcb;" horiz-adv-x="1474" d="M272 0v1337h1061v-92h-956v-487h579v-92h-579v-574h999v-92h-1104zM547 1614q0 27 19 45t48 18q30 0 50 -18t20 -45q0 -28 -19.5 -46t-50.5 -18q-29 0 -48 18t-19 46zM930 1614q0 27 19 45t48 18t48.5 -18.5t19.5 -44.5q0 -28 -19.5 -46t-48.5 -18t-48 18t-19 46z" />
<glyph unicode="&#xcc;" horiz-adv-x="649" d="M23 1747l127 10l294 -235l-88 -9zM272 0v1337h105v-1337h-105z" />
<glyph unicode="&#xcd;" horiz-adv-x="649" d="M203 1522l295 235l127 -10l-334 -234zM272 0v1337h105v-1337h-105z" />
<glyph unicode="&#xce;" horiz-adv-x="649" d="M43 1522l231 235h103l229 -235l-76 -9l-204 183l-207 -183zM272 0v1337h105v-1337h-105z" />
<glyph unicode="&#xcf;" horiz-adv-x="649" d="M66 1614q0 27 19 45t48 18t48.5 -18.5t19.5 -44.5q0 -28 -19.5 -46t-48.5 -18t-48 18t-19 46zM272 0v1337h105v-1337h-105zM446 1614q0 26 19.5 44.5t48.5 18.5q30 0 50 -18t20 -45q0 -28 -19.5 -46t-50.5 -18q-29 0 -48.5 18t-19.5 46z" />
<glyph unicode="&#xd0;" horiz-adv-x="1728" d="M117 666v84h205v587h528q182 0 304 -48.5t230 -147.5q91 -92 141 -213.5t50 -257.5q0 -138 -52 -262.5t-145 -217.5q-109 -97 -226.5 -143.5t-301.5 -46.5h-528v666h-205zM426 92h420q109 0 193 21.5t138.5 54t118.5 88.5q80 81 125 188t45 226t-44 224.5t-124 184.5 q-94 85 -194 125.5t-258 40.5h-420v-495h469v-84h-469v-574z" />
<glyph unicode="&#xd1;" horiz-adv-x="1714" d="M272 0v1337h103l960 -1165h2v1165h105v-1337h-103l-960 1165h-2v-1165h-105zM543 1563q43 67 84 101t92 34q33 0 62 -15.5t75 -50.5q73 -57 123 -57q31 0 58 25t59 71l61 -35q-41 -65 -82.5 -100t-93.5 -35q-74 0 -143 58q-32 25 -44.5 34t-33 19t-37.5 10t-32 -7 t-32 -25.5t-24.5 -28t-26.5 -35.5z" />
<glyph unicode="&#xd2;" horiz-adv-x="1759" d="M150 672q0 189 96 348.5t263.5 252.5t367.5 93q150 0 286 -55t234 -148t155.5 -221.5t57.5 -269.5q0 -191 -97.5 -352.5t-266 -255t-369.5 -93.5q-150 0 -285 55t-232 149t-153.5 223.5t-56.5 273.5zM260 672q0 -124 48 -236.5t130 -194.5t197 -130t242 -48 q128 0 244 48.5t199 130t132 194t49 236.5q0 122 -49 233.5t-132 192.5t-199 128.5t-244 47.5q-170 0 -312 -81t-223.5 -219t-81.5 -302zM575 1747l127 10l295 -235l-88 -9z" />
<glyph unicode="&#xd3;" horiz-adv-x="1759" d="M150 672q0 189 96 348.5t263.5 252.5t367.5 93q150 0 286 -55t234 -148t155.5 -221.5t57.5 -269.5q0 -191 -97.5 -352.5t-266 -255t-369.5 -93.5q-150 0 -285 55t-232 149t-153.5 223.5t-56.5 273.5zM260 672q0 -124 48 -236.5t130 -194.5t197 -130t242 -48 q128 0 244 48.5t199 130t132 194t49 236.5q0 122 -49 233.5t-132 192.5t-199 128.5t-244 47.5q-170 0 -312 -81t-223.5 -219t-81.5 -302zM758 1522l295 235l125 -10l-334 -234z" />
<glyph unicode="&#xd4;" horiz-adv-x="1759" d="M150 672q0 189 96 348.5t263.5 252.5t367.5 93q150 0 286 -55t234 -148t155.5 -221.5t57.5 -269.5q0 -191 -97.5 -352.5t-266 -255t-369.5 -93.5q-150 0 -285 55t-232 149t-153.5 223.5t-56.5 273.5zM260 672q0 -124 48 -236.5t130 -194.5t197 -130t242 -48 q128 0 244 48.5t199 130t132 194t49 236.5q0 122 -49 233.5t-132 192.5t-199 128.5t-244 47.5q-170 0 -312 -81t-223.5 -219t-81.5 -302zM596 1522l231 235h103l229 -235l-76 -9l-204 183l-207 -183z" />
<glyph unicode="&#xd5;" horiz-adv-x="1759" d="M150 672q0 189 96 348.5t263.5 252.5t367.5 93q150 0 286 -55t234 -148t155.5 -221.5t57.5 -269.5q0 -191 -97.5 -352.5t-266 -255t-369.5 -93.5q-150 0 -285 55t-232 149t-153.5 223.5t-56.5 273.5zM260 672q0 -124 48 -236.5t130 -194.5t197 -130t242 -48 q128 0 244 48.5t199 130t132 194t49 236.5q0 122 -49 233.5t-132 192.5t-199 128.5t-244 47.5q-170 0 -312 -81t-223.5 -219t-81.5 -302zM565 1563q43 67 84 101t92 34q33 0 62.5 -15.5t75.5 -50.5q73 -57 122 -57q31 0 58 25t59 71l62 -35q-41 -65 -82.5 -100t-93.5 -35 q-75 0 -144 58q-32 25 -44.5 34t-33 19t-37.5 10q-29 0 -53.5 -23t-54.5 -64l-6 -9z" />
<glyph unicode="&#xd6;" horiz-adv-x="1759" d="M150 672q0 189 96 348.5t263.5 252.5t367.5 93q150 0 286 -55t234 -148t155.5 -221.5t57.5 -269.5q0 -191 -97.5 -352.5t-266 -255t-369.5 -93.5q-150 0 -285 55t-232 149t-153.5 223.5t-56.5 273.5zM260 672q0 -124 48 -236.5t130 -194.5t197 -130t242 -48 q128 0 244 48.5t199 130t132 194t49 236.5q0 122 -49 233.5t-132 192.5t-199 128.5t-244 47.5q-170 0 -312 -81t-223.5 -219t-81.5 -302zM618 1614q0 26 19.5 44.5t48.5 18.5q30 0 50 -18t20 -45q0 -28 -19.5 -46t-50.5 -18q-29 0 -48.5 18t-19.5 46zM1001 1614 q0 26 19.5 44.5t48.5 18.5t48.5 -18.5t19.5 -44.5q0 -28 -19.5 -46t-48.5 -18t-48.5 18t-19.5 46z" />
<glyph unicode="&#xd7;" horiz-adv-x="1411" d="M215 115l424 397l-424 397l66 64l424 -400l425 400l62 -62l-422 -397l424 -397l-66 -64l-426 398l-423 -398z" />
<glyph unicode="&#xd8;" horiz-adv-x="1759" d="M150 672q0 189 96 348.5t263.5 252.5t367.5 93q194 0 368 -94l123 178l72 -49l-121 -174q135 -97 213 -243t78 -312q0 -191 -97.5 -352.5t-266 -255t-369.5 -93.5q-196 0 -367 95l-123 -177l-74 48l121 174q-132 97 -208 244t-76 317zM260 672q0 -143 62 -267.5 t170 -211.5l696 999q-145 82 -311 82q-170 0 -312 -81t-223.5 -219t-81.5 -302zM565 143q141 -80 312 -80q128 0 244 48.5t199 130t132 194t49 236.5q0 142 -64 265t-175 208z" />
<glyph unicode="&#xd9;" horiz-adv-x="1648" d="M244 475v862h104v-862q0 -193 133 -302.5t342 -109.5q210 0 343.5 109.5t133.5 302.5v862h105v-862q0 -235 -163 -369.5t-419 -134.5q-167 0 -297 58t-206 173.5t-76 272.5zM520 1747l127 10l295 -235l-88 -9z" />
<glyph unicode="&#xda;" horiz-adv-x="1648" d="M244 475v862h104v-862q0 -193 133 -302.5t342 -109.5q210 0 343.5 109.5t133.5 302.5v862h105v-862q0 -235 -163 -369.5t-419 -134.5q-167 0 -297 58t-206 173.5t-76 272.5zM702 1522l295 235l125 -10l-334 -234z" />
<glyph unicode="&#xdb;" horiz-adv-x="1648" d="M244 475v862h104v-862q0 -193 133 -302.5t342 -109.5q210 0 343.5 109.5t133.5 302.5v862h105v-862q0 -235 -163 -369.5t-419 -134.5q-167 0 -297 58t-206 173.5t-76 272.5zM541 1522l231 235h102l230 -235l-76 -9l-205 183l-207 -183z" />
<glyph unicode="&#xdc;" horiz-adv-x="1648" d="M244 475v862h104v-862q0 -193 133 -302.5t342 -109.5q210 0 343.5 109.5t133.5 302.5v862h105v-862q0 -235 -163 -369.5t-419 -134.5q-167 0 -297 58t-206 173.5t-76 272.5zM563 1614q0 26 19.5 44.5t48.5 18.5q30 0 49.5 -18t19.5 -45q0 -28 -19 -46t-50 -18 q-29 0 -48.5 18t-19.5 46zM946 1614q0 26 19.5 44.5t48.5 18.5t48 -18t19 -45q0 -28 -19 -46t-48 -18t-48.5 18t-19.5 46z" />
<glyph unicode="&#xdd;" horiz-adv-x="1357" d="M78 1337h131l473 -602l475 602h123l-549 -696v-641h-104v641zM557 1522l295 235l125 -10l-334 -234z" />
<glyph unicode="&#xde;" horiz-adv-x="1554" d="M272 0v1337h105v-280h612q127 0 204 -30.5t144 -94.5q107 -113 107 -262q0 -156 -113 -269q-68 -60 -145 -89t-197 -29h-612v-283h-105zM377 375h612q88 0 151 21.5t115 70.5q84 84 84 203t-79 198q-53 52 -115 74.5t-156 22.5h-612v-590z" />
<glyph unicode="&#xdf;" horiz-adv-x="1230" d="M209 0v1094q0 95 32 167.5t85.5 113.5t117 61t134.5 20q158 0 256 -90t98 -223q0 -62 -22 -118.5t-56.5 -96t-69.5 -66t-67 -39.5q43 -14 90.5 -38.5t102 -66t96.5 -91.5t70 -119.5t28 -145.5q0 -169 -122 -275.5t-341 -106.5l-8 75q177 0 272.5 86t95.5 224 q0 74 -30 140t-73 110t-97.5 80t-96 54t-77.5 29l8 78q72 16 134 96.5t62 184.5q0 105 -70 171t-183 66q-52 0 -99 -15.5t-87 -47.5t-63.5 -88t-23.5 -129v-1094h-96z" />
<glyph unicode="&#xe0;" d="M115 295q0 135 112 223t310 88q113 0 218 -32.5t163 -102.5v178q0 57 -26.5 100t-72 68t-99.5 37t-114 12q-109 0 -205.5 -35t-158.5 -79l-37 77q185 119 405 119q77 0 145.5 -14.5t129 -45t96 -85.5t35.5 -129v-506q0 -106 35 -168h-99q-30 45 -34 154q-42 -40 -97 -76 t-147.5 -67t-188.5 -31q-171 0 -270.5 89t-99.5 226zM213 295q0 -101 77.5 -167.5t213.5 -66.5q78 0 156 23.5t130.5 55.5t87 59.5t40.5 40.5v147q-49 71 -150.5 106t-218.5 35q-164 0 -250 -65t-86 -168zM395 1401l109 8l188 -299l-86 -8z" />
<glyph unicode="&#xe1;" d="M115 295q0 135 112 223t310 88q113 0 218 -32.5t163 -102.5v178q0 57 -26.5 100t-72 68t-99.5 37t-114 12q-109 0 -205.5 -35t-158.5 -79l-37 77q185 119 405 119q77 0 145.5 -14.5t129 -45t96 -85.5t35.5 -129v-506q0 -106 35 -168h-99q-30 45 -34 154q-42 -40 -97 -76 t-147.5 -67t-188.5 -31q-171 0 -270.5 89t-99.5 226zM213 295q0 -101 77.5 -167.5t213.5 -66.5q78 0 156 23.5t130.5 55.5t87 59.5t40.5 40.5v147q-49 71 -150.5 106t-218.5 35q-164 0 -250 -65t-86 -168zM522 1110l189 299l106 -8l-209 -299z" />
<glyph unicode="&#xe2;" d="M115 295q0 135 112 223t310 88q113 0 218 -32.5t163 -102.5v178q0 57 -26.5 100t-72 68t-99.5 37t-114 12q-109 0 -205.5 -35t-158.5 -79l-37 77q185 119 405 119q77 0 145.5 -14.5t129 -45t96 -85.5t35.5 -129v-506q0 -106 35 -168h-99q-30 45 -34 154q-42 -40 -97 -76 t-147.5 -67t-188.5 -31q-171 0 -270.5 89t-99.5 226zM213 295q0 -101 77.5 -167.5t213.5 -66.5q78 0 156 23.5t130.5 55.5t87 59.5t40.5 40.5v147q-49 71 -150.5 106t-218.5 35q-164 0 -250 -65t-86 -168zM326 1116l231 248h102l230 -248l-76 -10l-205 199l-207 -199z" />
<glyph unicode="&#xe3;" d="M115 295q0 135 112 223t310 88q113 0 218 -32.5t163 -102.5v178q0 57 -26.5 100t-72 68t-99.5 37t-114 12q-109 0 -205.5 -35t-158.5 -79l-37 77q185 119 405 119q77 0 145.5 -14.5t129 -45t96 -85.5t35.5 -129v-506q0 -106 35 -168h-99q-30 45 -34 154q-42 -40 -97 -76 t-147.5 -67t-188.5 -31q-171 0 -270.5 89t-99.5 226zM213 295q0 -101 77.5 -167.5t213.5 -66.5q78 0 156 23.5t130.5 55.5t87 59.5t40.5 40.5v147q-49 71 -150.5 106t-218.5 35q-164 0 -250 -65t-86 -168zM295 1155q43 67 84 101t92 34q34 0 63 -15t74 -50q71 -56 123 -56 q22 0 45 16.5t36.5 32.5t35.5 46l61 -35q-41 -65 -82.5 -100t-93.5 -35q-75 0 -143 57q-32 25 -44.5 34t-33 19t-37.5 10t-32 -7t-32 -25.5t-24.5 -28t-26.5 -35.5z" />
<glyph unicode="&#xe4;" d="M115 295q0 135 112 223t310 88q113 0 218 -32.5t163 -102.5v178q0 57 -26.5 100t-72 68t-99.5 37t-114 12q-109 0 -205.5 -35t-158.5 -79l-37 77q185 119 405 119q77 0 145.5 -14.5t129 -45t96 -85.5t35.5 -129v-506q0 -106 35 -168h-99q-30 45 -34 154q-42 -40 -97 -76 t-147.5 -67t-188.5 -31q-171 0 -270.5 89t-99.5 226zM213 295q0 -101 77.5 -167.5t213.5 -66.5q78 0 156 23.5t130.5 55.5t87 59.5t40.5 40.5v147q-49 71 -150.5 106t-218.5 35q-164 0 -250 -65t-86 -168zM348 1206q0 27 19.5 45.5t48.5 18.5q30 0 49.5 -18.5t19.5 -45.5 q0 -28 -19 -45.5t-50 -17.5q-29 0 -48.5 18.5t-19.5 44.5zM731 1206q0 27 19.5 45.5t48.5 18.5t48 -18.5t19 -45.5q0 -28 -19 -45.5t-48 -17.5t-48.5 18.5t-19.5 44.5z" />
<glyph unicode="&#xe5;" d="M115 295q0 135 112 223t310 88q113 0 218 -32.5t163 -102.5v178q0 57 -26.5 100t-72 68t-99.5 37t-114 12q-109 0 -205.5 -35t-158.5 -79l-37 77q185 119 405 119q77 0 145.5 -14.5t129 -45t96 -85.5t35.5 -129v-506q0 -106 35 -168h-99q-30 45 -34 154q-42 -40 -97 -76 t-147.5 -67t-188.5 -31q-171 0 -270.5 89t-99.5 226zM213 295q0 -101 77.5 -167.5t213.5 -66.5q78 0 156 23.5t130.5 55.5t87 59.5t40.5 40.5v147q-49 71 -150.5 106t-218.5 35q-164 0 -250 -65t-86 -168zM383 1272q0 79 60 132.5t161 53.5q102 0 163.5 -53.5t61.5 -132.5 q0 -78 -61.5 -130t-163.5 -52t-161.5 51.5t-59.5 130.5zM446 1272q0 -58 43.5 -95.5t114.5 -37.5q70 0 115 38t45 95q0 59 -45 98t-115 39q-71 0 -114.5 -39t-43.5 -98z" />
<glyph unicode="&#xe6;" horiz-adv-x="1998" d="M115 295q0 135 112 223t310 88q113 0 220 -33t165 -102v178q0 57 -27.5 100t-73.5 68t-100 37t-115 12q-109 0 -205.5 -35t-158.5 -79l-37 77q185 119 405 119q67 0 127.5 -11.5t116.5 -36.5t92.5 -72t42.5 -111v-51q46 130 162.5 206t255.5 76q70 0 137 -17t128.5 -54.5 t107 -92t71.5 -134t23 -175.5h-856q0 -39 4 -82q15 -144 120 -238t265 -94q233 0 375 152l65 -61q-173 -177 -440 -177q-139 0 -246.5 56.5t-169.5 154.5q-83 -86 -218.5 -148.5t-287.5 -62.5q-170 0 -270 91t-100 229zM213 295q0 -101 77.5 -167.5t213.5 -66.5 q80 0 157.5 21t135 54t96.5 62.5t63 55.5q-30 65 -36 131q-57 73 -156 108t-215 35q-164 0 -250 -65t-86 -168zM1022 551h745q-2 77 -35 138.5t-85.5 99t-114 57.5t-125.5 20q-145 0 -250 -88t-135 -227z" />
<glyph unicode="&#xe7;" horiz-adv-x="1153" d="M133 465q0 142 68 253.5t181.5 170.5t250.5 59q233 0 399 -153l-65 -66q-69 66 -156 99.5t-178 33.5q-167 0 -281 -110.5t-114 -286.5q0 -180 118 -292t287 -112q81 0 156.5 29t116.5 59.5t73 65.5l68 -59q-14 -17 -35.5 -37t-60.5 -46.5t-84 -47t-108 -35t-130 -15.5 l-39 -120q66 16 111 16q76 0 132 -38t56 -116q0 -84 -86.5 -131t-222.5 -47q-131 0 -303 49l16 58q194 -45 283 -45q100 0 162.5 30.5t62.5 87.5q0 53 -38.5 76t-92.5 23q-43 0 -121 -21l-37 37l47 146q-187 21 -311.5 153t-124.5 332z" />
<glyph unicode="&#xe8;" d="M133 451q0 209 142.5 353t349.5 144q84 0 163 -26.5t147 -78.5t110.5 -139.5t44.5 -197.5q0 -16 -3 -31h-858v-22q0 -168 108 -280t290 -112q112 0 208 41.5t162 110.5l66 -61q-78 -79 -194 -128t-251 -49q-220 0 -352.5 136t-132.5 340zM240 551h743q-2 77 -35.5 138.5 t-86 99t-114.5 57.5t-126 20q-143 0 -247 -89t-134 -226zM414 1401l108 8l189 -299l-86 -8z" />
<glyph unicode="&#xe9;" d="M133 451q0 209 142.5 353t349.5 144q84 0 163 -26.5t147 -78.5t110.5 -139.5t44.5 -197.5q0 -16 -3 -31h-858v-22q0 -168 108 -280t290 -112q112 0 208 41.5t162 110.5l66 -61q-78 -79 -194 -128t-251 -49q-220 0 -352.5 136t-132.5 340zM240 551h743q-2 77 -35.5 138.5 t-86 99t-114.5 57.5t-126 20q-143 0 -247 -89t-134 -226zM541 1110l188 299l107 -8l-209 -299z" />
<glyph unicode="&#xea;" d="M133 451q0 209 142.5 353t349.5 144q84 0 163 -26.5t147 -78.5t110.5 -139.5t44.5 -197.5q0 -16 -3 -31h-858v-22q0 -168 108 -280t290 -112q112 0 208 41.5t162 110.5l66 -61q-78 -79 -194 -128t-251 -49q-220 0 -352.5 136t-132.5 340zM240 551h743q-2 77 -35.5 138.5 t-86 99t-114.5 57.5t-126 20q-143 0 -247 -89t-134 -226zM344 1116l231 248h103l229 -248l-76 -10l-204 199l-207 -199z" />
<glyph unicode="&#xeb;" d="M133 451q0 209 142.5 353t349.5 144q84 0 163 -26.5t147 -78.5t110.5 -139.5t44.5 -197.5q0 -16 -3 -31h-858v-22q0 -168 108 -280t290 -112q112 0 208 41.5t162 110.5l66 -61q-78 -79 -194 -128t-251 -49q-220 0 -352.5 136t-132.5 340zM240 551h743q-2 77 -35.5 138.5 t-86 99t-114.5 57.5t-126 20q-143 0 -247 -89t-134 -226zM367 1206q0 27 19 45.5t48 18.5q30 0 50 -18.5t20 -45.5q0 -28 -19.5 -45.5t-50.5 -17.5q-29 0 -48 18t-19 45zM750 1206q0 27 19 45.5t48 18.5t48.5 -18.5t19.5 -45.5q0 -28 -19.5 -45.5t-48.5 -17.5t-48 18t-19 45 z" />
<glyph unicode="&#xec;" horiz-adv-x="514" d="M45 1401l109 8l188 -299l-86 -8zM209 0v924h96v-924h-96z" />
<glyph unicode="&#xed;" horiz-adv-x="514" d="M170 1110l190 299l107 -8l-209 -299zM209 0v924h96v-924h-96z" />
<glyph unicode="&#xee;" horiz-adv-x="514" d="M-25 1116l232 248h102l230 -248l-76 -10l-205 199l-207 -199zM209 0v924h96v-924h-96z" />
<glyph unicode="&#xef;" horiz-adv-x="514" d="M-2 1206q0 27 19.5 45.5t48.5 18.5t49 -19t20 -45q0 -28 -19.5 -45.5t-49.5 -17.5q-29 0 -48.5 18.5t-19.5 44.5zM209 0v924h96v-924h-96zM381 1206q0 27 19 45.5t49 18.5q29 0 48 -18.5t19 -45.5q0 -28 -19 -45.5t-48 -17.5q-30 0 -49 18t-19 45z" />
<glyph unicode="&#xf0;" horiz-adv-x="1284" d="M133 455q0 131 64.5 241.5t172.5 173t234 62.5q135 0 244.5 -65t146.5 -179q-43 275 -219 459l-45 45l-348 -125l-25 66l310 112q-108 84 -283 162l98 29q171 -77 277 -158l241 88l25 -68l-205 -73l43 -43q110 -118 179 -287t69 -385q0 -252 -131 -389 q-66 -69 -159.5 -107.5t-196.5 -38.5q-130 0 -243.5 64t-181 175t-67.5 241zM236 455q0 -164 113 -279t276 -115q81 0 155 30.5t129 88.5q103 115 103 287q0 169 -112.5 275t-276.5 106q-161 0 -274 -114.5t-113 -278.5z" />
<glyph unicode="&#xf1;" horiz-adv-x="1241" d="M180 924h92q22 -63 29 -152q172 176 389 176q157 0 258 -90.5t101 -230.5v-627h-99v627q0 102 -76.5 168.5t-195.5 66.5q-199 0 -369 -170v-692h-98v715q0 112 -31 209zM307 1155q43 67 84 101t92 34q34 0 63.5 -15.5t74.5 -49.5q71 -56 122 -56q22 0 45 16.5t36.5 32.5 t35.5 46l62 -35q-41 -65 -83 -100t-94 -35q-75 0 -143 57q-32 25 -44.5 34t-33 19t-37.5 10q-29 0 -53.5 -23t-54.5 -64l-6 -9z" />
<glyph unicode="&#xf2;" horiz-adv-x="1263" d="M133 465q0 132 65.5 243t179.5 175.5t251 64.5q138 0 253.5 -64.5t181.5 -175.5t66 -243q0 -135 -66 -247.5t-181.5 -177.5t-253.5 -65q-137 0 -251 65t-179.5 177.5t-65.5 247.5zM233 465q0 -170 115 -289t281 -119q169 0 285 119t116 289q0 166 -116 283.5t-285 117.5 q-166 0 -281 -118t-115 -283zM418 1401l108 8l189 -299l-86 -8z" />
<glyph unicode="&#xf3;" horiz-adv-x="1263" d="M133 465q0 132 65.5 243t179.5 175.5t251 64.5q138 0 253.5 -64.5t181.5 -175.5t66 -243q0 -135 -66 -247.5t-181.5 -177.5t-253.5 -65q-137 0 -251 65t-179.5 177.5t-65.5 247.5zM233 465q0 -170 115 -289t281 -119q169 0 285 119t116 289q0 166 -116 283.5t-285 117.5 q-166 0 -281 -118t-115 -283zM545 1110l188 299l107 -8l-209 -299z" />
<glyph unicode="&#xf4;" horiz-adv-x="1263" d="M133 465q0 132 65.5 243t179.5 175.5t251 64.5q138 0 253.5 -64.5t181.5 -175.5t66 -243q0 -135 -66 -247.5t-181.5 -177.5t-253.5 -65q-137 0 -251 65t-179.5 177.5t-65.5 247.5zM233 465q0 -170 115 -289t281 -119q169 0 285 119t116 289q0 166 -116 283.5t-285 117.5 q-166 0 -281 -118t-115 -283zM348 1116l232 248h102l229 -248l-75 -10l-205 199l-207 -199z" />
<glyph unicode="&#xf5;" horiz-adv-x="1263" d="M133 465q0 132 65.5 243t179.5 175.5t251 64.5q138 0 253.5 -64.5t181.5 -175.5t66 -243q0 -135 -66 -247.5t-181.5 -177.5t-253.5 -65q-137 0 -251 65t-179.5 177.5t-65.5 247.5zM233 465q0 -170 115 -289t281 -119q169 0 285 119t116 289q0 166 -116 283.5t-285 117.5 q-166 0 -281 -118t-115 -283zM317 1155q43 67 84.5 101t92.5 34q34 0 63 -15t74 -50q71 -56 123 -56q22 0 45 16.5t35.5 32t35.5 46.5l62 -35q-41 -65 -82.5 -100t-93.5 -35q-76 0 -144 57q-62 49 -84 57q-15 6 -30 6q-17 0 -32 -7t-32 -25.5t-24.5 -28t-26.5 -35.5z" />
<glyph unicode="&#xf6;" horiz-adv-x="1263" d="M133 465q0 132 65.5 243t179.5 175.5t251 64.5q138 0 253.5 -64.5t181.5 -175.5t66 -243q0 -135 -66 -247.5t-181.5 -177.5t-253.5 -65q-137 0 -251 65t-179.5 177.5t-65.5 247.5zM233 465q0 -170 115 -289t281 -119q169 0 285 119t116 289q0 166 -116 283.5t-285 117.5 q-166 0 -281 -118t-115 -283zM371 1206q0 27 19 45.5t48 18.5q30 0 50 -18.5t20 -45.5q0 -28 -19.5 -45.5t-50.5 -17.5q-29 0 -48 18t-19 45zM754 1206q0 27 19 45.5t48 18.5t48.5 -18.5t19.5 -45.5q0 -28 -19.5 -45.5t-48.5 -17.5t-48 18t-19 45z" />
<glyph unicode="&#xf7;" horiz-adv-x="1411" d="M168 469v86h1073v-86h-1073zM616 74q0 34 26.5 58t64.5 24t63 -24t25 -58q0 -35 -25.5 -57.5t-62.5 -22.5q-38 0 -64.5 22.5t-26.5 57.5zM616 952q0 35 26.5 57.5t64.5 22.5q37 0 62.5 -22.5t25.5 -57.5q0 -34 -25 -58t-63 -24t-64.5 24t-26.5 58z" />
<glyph unicode="&#xf8;" horiz-adv-x="1263" d="M133 465q0 132 65.5 243t179.5 175.5t251 64.5t254 -65l100 143l57 -41l-100 -141q89 -67 139.5 -166t50.5 -213q0 -135 -66 -247.5t-181.5 -177.5t-253.5 -65q-133 0 -252 66l-101 -143l-55 41l98 139q-88 69 -137 169t-49 218zM233 465q0 -92 37 -173t101 -138l460 657 q-93 55 -202 55q-166 0 -281 -118t-115 -283zM426 113q94 -56 203 -56q169 0 285 119t116 289q0 89 -37.5 168.5t-103.5 136.5z" />
<glyph unicode="&#xf9;" horiz-adv-x="1239" d="M193 295v629h98v-629q0 -101 76.5 -168.5t195.5 -67.5q195 0 369 170v695h96v-717q0 -111 16 -207h-90q-14 66 -14 150q-175 -175 -389 -175q-156 0 -257 91t-101 229zM408 1401l108 8l189 -299l-87 -8z" />
<glyph unicode="&#xfa;" horiz-adv-x="1239" d="M193 295v629h98v-629q0 -101 76.5 -168.5t195.5 -67.5q195 0 369 170v695h96v-717q0 -111 16 -207h-90q-14 66 -14 150q-175 -175 -389 -175q-156 0 -257 91t-101 229zM535 1110l188 299l106 -8l-208 -299z" />
<glyph unicode="&#xfb;" horiz-adv-x="1239" d="M193 295v629h98v-629q0 -101 76.5 -168.5t195.5 -67.5q195 0 369 170v695h96v-717q0 -111 16 -207h-90q-14 66 -14 150q-175 -175 -389 -175q-156 0 -257 91t-101 229zM338 1116l231 248h103l229 -248l-76 -10l-204 199l-207 -199z" />
<glyph unicode="&#xfc;" horiz-adv-x="1239" d="M193 295v629h98v-629q0 -101 76.5 -168.5t195.5 -67.5q195 0 369 170v695h96v-717q0 -111 16 -207h-90q-14 66 -14 150q-175 -175 -389 -175q-156 0 -257 91t-101 229zM360 1206q0 27 19.5 45.5t48.5 18.5q30 0 50 -18.5t20 -45.5q0 -28 -19.5 -45.5t-50.5 -17.5 q-29 0 -48.5 18.5t-19.5 44.5zM743 1206q0 27 19.5 45.5t48.5 18.5t48.5 -18.5t19.5 -45.5q0 -28 -19.5 -45.5t-48.5 -17.5t-48.5 18.5t-19.5 44.5z" />
<glyph unicode="&#xfd;" horiz-adv-x="1114" d="M82 924h108l351 -805h6l389 805h98l-669 -1360h-99l223 446zM471 1110l188 299l107 -8l-209 -299z" />
<glyph unicode="&#xfe;" horiz-adv-x="1280" d="M186 -436v1870h97v-652q72 74 167 120t201 46q197 0 333 -135.5t136 -351.5q0 -143 -67 -255t-178.5 -171.5t-245.5 -59.5q-106 0 -196.5 48.5t-149.5 117.5v-577h-97zM283 225q58 -64 145.5 -115t192.5 -51q167 0 280 111.5t113 290.5t-107 290t-262 111 q-100 0 -194 -47t-168 -117v-473z" />
<glyph unicode="&#xff;" horiz-adv-x="1114" d="M82 924h108l351 -805h6l389 805h98l-669 -1360h-99l223 446zM297 1206q0 27 19.5 45.5t48.5 18.5q30 0 49.5 -18.5t19.5 -45.5q0 -28 -19 -45.5t-50 -17.5q-29 0 -48.5 18.5t-19.5 44.5zM680 1206q0 27 19.5 45.5t48.5 18.5t48 -18.5t19 -45.5q0 -28 -19 -45.5t-48 -17.5 t-48.5 18.5t-19.5 44.5z" />
<glyph unicode="&#x152;" horiz-adv-x="2703" d="M150 672q0 141 56.5 269.5t152 221.5t228.5 148t281 55q217 0 389.5 -110t243.5 -304v385h1059v-92h-954v-493h579v-95h-579v-565h997v-92h-1102v387q-71 -194 -243.5 -305t-389.5 -111q-148 0 -281 55t-229 149t-152 224t-56 273zM260 672q0 -124 47.5 -236.5 t128 -194.5t193.5 -130t239 -48q130 0 247 48.5t201.5 130t134.5 194t50 236.5q0 122 -50 233.5t-134.5 192.5t-201.5 128.5t-247 47.5q-168 0 -308 -81t-220 -219t-80 -302z" />
<glyph unicode="&#x153;" horiz-adv-x="2111" d="M131 465q0 98 40.5 188t108.5 154.5t159.5 102.5t189.5 38q152 0 280.5 -91t169.5 -230q40 141 164 231t277 90q70 0 137 -17t128.5 -54.5t107 -92t71.5 -134t23 -175.5h-857q0 -33 5 -72q11 -148 116 -245t269 -97q231 0 376 152l64 -61q-77 -80 -189 -128.5t-251 -48.5 q-166 0 -288 86.5t-159 225.5q-43 -136 -169 -224t-275 -88q-98 0 -189.5 38.5t-159.5 103.5t-108.5 156.5t-40.5 191.5zM231 465q0 -169 115.5 -288.5t282.5 -119.5q168 0 284.5 118.5t116.5 289.5q0 166 -116 283.5t-285 117.5q-166 0 -282 -118t-116 -283zM1139 551h741 q-1 77 -34 138.5t-85 99t-114 57.5t-127 20q-143 0 -247 -88t-134 -227z" />
<glyph unicode="&#x178;" horiz-adv-x="1357" d="M78 1337h131l473 -602l475 602h123l-549 -696v-641h-104v641zM418 1614q0 27 19 45t48 18q30 0 50 -18t20 -45q0 -28 -19.5 -46t-50.5 -18q-29 0 -48 18t-19 46zM801 1614q0 27 19 45t48 18t48.5 -18.5t19.5 -44.5q0 -28 -19.5 -46t-48.5 -18t-48 18t-19 46z" />
<glyph unicode="&#x2c6;" horiz-adv-x="1024" d="M229 1116l232 248h102l230 -248l-76 -10l-205 199l-207 -199z" />
<glyph unicode="&#x2dc;" horiz-adv-x="1024" d="M199 1155q43 67 84 101t92 34q34 0 63 -15t74 -50q71 -56 123 -56q22 0 45 16.5t36.5 32.5t35.5 46l61 -35q-41 -65 -82.5 -100t-93.5 -35q-75 0 -143 57q-32 25 -44.5 34t-33 19t-37.5 10t-32 -7t-32 -25.5t-24.5 -28t-26.5 -35.5z" />
<glyph unicode="&#x2000;" horiz-adv-x="922" />
<glyph unicode="&#x2001;" horiz-adv-x="1845" />
<glyph unicode="&#x2002;" horiz-adv-x="922" />
<glyph unicode="&#x2003;" horiz-adv-x="1845" />
<glyph unicode="&#x2004;" horiz-adv-x="615" />
<glyph unicode="&#x2005;" horiz-adv-x="461" />
<glyph unicode="&#x2006;" horiz-adv-x="307" />
<glyph unicode="&#x2007;" horiz-adv-x="307" />
<glyph unicode="&#x2008;" horiz-adv-x="230" />
<glyph unicode="&#x2009;" horiz-adv-x="369" />
<glyph unicode="&#x200a;" horiz-adv-x="102" />
<glyph unicode="&#x2010;" horiz-adv-x="825" d="M150 463v94h526v-94h-526z" />
<glyph unicode="&#x2011;" horiz-adv-x="825" d="M150 463v94h526v-94h-526z" />
<glyph unicode="&#x2012;" horiz-adv-x="825" d="M150 463v94h526v-94h-526z" />
<glyph unicode="&#x2013;" horiz-adv-x="1312" d="M150 471v86h1011v-86h-1011z" />
<glyph unicode="&#x2014;" horiz-adv-x="2295" d="M150 471v86h1994v-86h-1994z" />
<glyph unicode="&#x2018;" horiz-adv-x="530" d="M129 1090q0 207 250 296l29 -61q-33 -10 -66 -27.5t-65 -43t-52 -63t-20 -79.5q0 -30 15 -51t40 -27q32 8 47 8q33 0 55.5 -18t22.5 -47t-22 -48.5t-56 -19.5q-73 0 -125.5 51.5t-52.5 129.5z" />
<glyph unicode="&#x2019;" horiz-adv-x="532" d="M135 948q34 11 66.5 28.5t65.5 43.5t53 63.5t20 79.5q0 31 -15.5 51.5t-41.5 26.5q-32 -8 -45 -8q-33 0 -55.5 18t-22.5 47t22 48.5t56 19.5q73 0 125.5 -51.5t52.5 -128.5q0 -205 -250 -297z" />
<glyph unicode="&#x201a;" horiz-adv-x="616" d="M176 -262q34 11 66.5 28.5t65.5 43.5t53 63t20 78q0 31 -15.5 52.5t-41.5 27.5q-32 -8 -48 -8q-33 0 -54 18t-21 47q0 28 21.5 48t53.5 20q73 0 126 -52t53 -129q0 -208 -250 -297z" />
<glyph unicode="&#x201c;" horiz-adv-x="954" d="M129 1090q0 207 250 296l29 -61q-33 -10 -66 -27.5t-65 -43t-52 -63t-20 -79.5q0 -30 15 -51t40 -27q32 8 47 8q33 0 55.5 -18t22.5 -47t-22 -48.5t-56 -19.5q-73 0 -125.5 51.5t-52.5 129.5zM555 1090q0 207 250 296l29 -61q-34 -11 -66.5 -28t-65.5 -42.5t-53 -63 t-20 -79.5q0 -31 15.5 -51.5t41.5 -26.5q32 8 47 8q33 0 54.5 -18t21.5 -47t-22 -48.5t-54 -19.5q-73 0 -125.5 51.5t-52.5 129.5z" />
<glyph unicode="&#x201d;" horiz-adv-x="958" d="M135 948q34 11 66.5 28.5t65.5 43.5t53 63.5t20 79.5q0 31 -15.5 51.5t-41.5 26.5q-32 -8 -45 -8q-33 0 -55.5 18t-22.5 47t22 48.5t56 19.5q73 0 125.5 -51.5t52.5 -128.5q0 -205 -250 -297zM561 948q34 11 66.5 28.5t65.5 43.5t53 63.5t20 79.5q0 31 -15.5 51.5 t-41.5 26.5q-32 -8 -47 -8q-33 0 -54.5 18t-21.5 47t22 48.5t54 19.5q73 0 125.5 -51.5t52.5 -128.5q0 -208 -250 -297z" />
<glyph unicode="&#x201e;" horiz-adv-x="1042" d="M176 -262q34 11 66.5 28.5t65.5 43.5t53 63t20 78q0 31 -15.5 52.5t-41.5 27.5q-32 -8 -48 -8q-33 0 -54 18t-21 47q0 28 21.5 48t53.5 20q73 0 126 -52t53 -129q0 -208 -250 -297zM602 -262q34 11 66 28.5t64.5 43.5t52.5 63t20 78q0 31 -15 52.5t-40 27.5 q-32 -8 -48 -8q-33 0 -55 18t-22 47q0 28 22 48t55 20q73 0 126 -52t53 -129q0 -208 -250 -297z" />
<glyph unicode="&#x2022;" horiz-adv-x="907" d="M139 604q0 124 92.5 210.5t223.5 86.5q128 0 220.5 -86.5t92.5 -210.5t-92.5 -210.5t-220.5 -86.5q-131 0 -223.5 86.5t-92.5 210.5z" />
<glyph unicode="&#x2026;" horiz-adv-x="2048" d="M279 70q0 36 27.5 61t66.5 25t65.5 -25t26.5 -61t-26.5 -61t-65.5 -25t-66.5 25t-27.5 61zM930 70q0 36 27.5 61t66.5 25t65.5 -25t26.5 -61t-26.5 -61t-65.5 -25t-66.5 25t-27.5 61zM1581 70q0 36 26.5 61t67.5 25q39 0 65.5 -25t26.5 -61t-26.5 -61t-65.5 -25 q-41 0 -67.5 25t-26.5 61z" />
<glyph unicode="&#x202f;" horiz-adv-x="369" />
<glyph unicode="&#x2039;" horiz-adv-x="636" d="M125 463v57l227 252h117l-248 -272v-17l248 -270h-117z" />
<glyph unicode="&#x203a;" horiz-adv-x="636" d="M170 213l248 270v17l-248 272h117l227 -252v-57l-227 -250h-117z" />
<glyph unicode="&#x205f;" horiz-adv-x="461" />
<glyph unicode="&#x20ac;" horiz-adv-x="1587" d="M131 399v68h166q-6 40 -6 82q0 56 8 100h-168v68h186q59 179 222 293t370 114q146 0 276.5 -46.5t225.5 -129.5l-63 -71q-84 73 -198.5 114t-240.5 41q-163 0 -294.5 -88t-188.5 -227h641v-68h-661q-11 -61 -11 -100q0 -46 8 -82h664v-68h-647q52 -147 186.5 -240 t302.5 -93q128 0 246.5 46t208.5 126l63 -72q-104 -91 -237 -142t-281 -51q-212 0 -377.5 120t-220.5 306h-180z" />
<glyph unicode="&#x2122;" horiz-adv-x="1742" d="M113 1276v61h561v-61h-244v-608h-74v608h-243zM870 668v669h82l258 -436h2l258 436h80v-669h-75v544h-7l-251 -424h-19l-252 424h-6v-544h-70z" />
<glyph unicode="&#x25fc;" horiz-adv-x="921" d="M0 0v922h922v-922h-922z" />
</font>
</defs>
</svg>
