<svg xmlns="http://www.w3.org/2000/svg" xml:space="preserve" style="enable-background:new 0 0 84.91 122.88" viewBox="0 0 84.91 122.88"><path d="M26.6 80.57a3.13 3.13 0 0 1-.37-.23 422.09 422.09 0 0 1-4.54-3.66l-6.09-5.02a8.67 8.67 0 0 0-3.63-1.83 3.9 3.9 0 0 0-2.06.08c-.45.2-.85.56-1.1 1.13a7.1 7.1 0 0 0-.42 3.3c.08 1.3.54 2.71 1.13 4.09.87 2 2.09 3.86 2.99 5.04.06.08.11.14.14.23l17.84 25.48c.23.34.37.71.39 1.07.37 2.93.99 5.16 1.89 6.54.68 1.01 1.52 1.52 2.62 1.49h28.07a8.39 8.39 0 0 0 4.79-1.55c1.61-1.1 3.04-2.82 4.37-5.13l.08-.11c.51-.87 1.18-2 1.83-3.07 2.85-4.68 5.33-8.77 5.61-14.57l-.17-8c-.03-.11-.03-.23-.03-.34s0-.87.03-1.89c.06-5.3.14-11.84-4.71-12.65h-3.13a109.4 109.4 0 0 1-.2 4.48c-.08 1.32-.17 2.56-.17 3.78 0 1.3-1.04 2.34-2.34 2.34a2.33 2.33 0 0 1-2.34-2.34c0-1.21.08-2.62.17-4.09.31-4.99.68-10.71-3.3-11.41h-3.1c-.17 0-.34-.03-.51-.06.03 1.8-.08 3.66-.2 5.47-.06 1.32-.14 2.56-.14 3.77 0 1.3-1.04 2.34-2.34 2.34a2.33 2.33 0 0 1-2.34-2.34c0-1.21.08-2.62.17-4.09.31-4.99.68-10.71-3.3-11.41h-3.1c-.23 0-.42-.03-.62-.08v9.1c0 1.3-1.04 2.34-2.34 2.34a2.33 2.33 0 0 1-2.34-2.34V41.99c0-4.09-1.66-6.68-3.8-7.75a5.42 5.42 0 0 0-4.9 0c-2.11 1.07-3.75 3.66-3.75 7.86v42.81c0 1.3-1.04 2.34-2.34 2.34a2.33 2.33 0 0 1-2.34-2.34v-4.34h-.06zm12.69-66.58a2.78 2.78 0 0 1-5.56 0V2.78a2.78 2.78 0 0 1 5.56 0v11.21zm-25.3 22.96a2.78 2.78 0 0 1 0 5.56H2.78a2.78 2.78 0 0 1 0-5.56h11.21zm7.93-16.62a2.79 2.79 0 0 1 0 3.93 2.79 2.79 0 0 1-3.93 0l-7.9-7.93a2.79 2.79 0 0 1 0-3.93 2.79 2.79 0 0 1 3.93 0l7.9 7.93zM58.47 42.5a2.78 2.78 0 0 1 0-5.56h11.21a2.78 2.78 0 0 1 0 5.56H58.47zm-4-18.85a2.79 2.79 0 0 1-3.93 0 2.79 2.79 0 0 1 0-3.93l7.9-7.93a2.79 2.79 0 0 1 3.93 0 2.79 2.79 0 0 1 0 3.93l-7.9 7.93zm-6 29.14c.2-.06.39-.08.62-.08h3.24c.17 0 .37.03.53.06 4.31.68 6.26 3.19 7.05 6.45.31-.14.65-.23.99-.23h3.24c.17 0 .37.03.53.06 4.65.73 6.51 3.58 7.19 7.19.11-.03.23-.03.37-.03h3.24c.17 0 .37.03.54.06 8.91 1.38 8.79 10.23 8.71 17.36v1.86l.2 8.23v.25c-.34 7.02-3.1 11.56-6.28 16.8-.54.87-1.07 1.77-1.8 3.02-.03.03-.03.06-.06.08a19.9 19.9 0 0 1-5.78 6.65 12.98 12.98 0 0 1-7.41 2.37H35.53c-2.79.06-4.96-1.16-6.57-3.55-1.3-1.92-2.14-4.62-2.59-8L8.9 86.35l-.09-.08a32.07 32.07 0 0 1-3.52-5.95 17.56 17.56 0 0 1-1.52-5.67c-.14-2.28.17-4.09.82-5.52a6.58 6.58 0 0 1 3.64-3.55 8.06 8.06 0 0 1 4.71-.34c1.97.4 4 1.38 5.72 2.82 1.41 1.18 3.78 3.1 6.09 4.99l1.92 1.58v-32.5c0-6.23 2.76-10.23 6.34-12.04a10.06 10.06 0 0 1 9.13 0c3.58 1.8 6.4 5.83 6.4 11.95V52.8l-.07-.01z"/></svg>