<svg xmlns="http://www.w3.org/2000/svg" data-name="Layer 1" viewBox="0 0 391.7 391.5">
  <path d="M383.4 348.8 230.8 196.2l25.8-25.8 127-127 .4-.4.3-.3a24.9 24.9 0 0 0 0-35.4 25 25 0 0 0-35.4 0s0 .2-.3.4L221.2 135l-25.8 25.7-25-25L43 8.5a75 75 0 0 1-.3-.3 25 25 0 0 0-35.3 0 24.9 24.9 0 0 0 0 35.4l.3.3.3.4 127.1 127 25 25L8.2 348.1a25 25 0 0 0 0 35.3 26.1 26.1 0 0 0 17.9 7.3c5.6 0 11.7-2 17.5-7.3l.8-.8 151-151 151.8 151.7.9.9a25.3 25.3 0 0 0 17.5 7.3 26.1 26.1 0 0 0 17.8-7.3 25 25 0 0 0 0-35.4Z"/>
</svg>
