<svg xmlns="http://www.w3.org/2000/svg" width="24" height="24"><path d="M20.95 8.3a6.53 6.53 0 0 0-.42-2.21 4.61 4.61 0 0 0-2.64-2.63 6.6 6.6 0 0 0-2.18-.42c-.96-.05-1.27-.06-3.71-.06s-2.75 0-3.71.06a6.6 6.6 0 0 0-2.19.42 4.6 4.6 0 0 0-2.63 2.63 6.55 6.55 0 0 0-.42 2.18C3.01 9.24 3 9.54 3 11.98s0 2.76.05 3.71c.02.75.16 1.49.42 2.2a4.61 4.61 0 0 0 2.64 2.62 6.58 6.58 0 0 0 2.18.45c.96.05 1.27.06 3.71.06s2.76 0 3.71-.06a6.59 6.59 0 0 0 2.19-.42 4.62 4.62 0 0 0 2.63-2.63c.26-.7.4-1.44.42-2.19.04-.96.05-1.26.05-3.7 0-2.45 0-2.76-.05-3.71zm-8.96 8.3a4.62 4.62 0 1 1 0-9.24 4.62 4.62 0 0 1 0 9.24zm4.81-8.34a1.08 1.08 0 0 1-1.08-1.07 1.08 1.08 0 1 1 2.16 0c0 .6-.48 1.07-1.08 1.07z"/><circle cx="11.99" cy="11.98" r="3"/></svg>