<svg xmlns="http://www.w3.org/2000/svg" xml:space="preserve" width="800" height="800" viewBox="0 0 297 297"><path d="M251.01 277.01h-17.68v-31.55c0-31.64-17.36-60.73-48.88-81.9-3.99-2.69-6.47-8.45-6.47-15.06s2.48-12.37 6.47-15.05c31.52-21.18 48.87-50.27 48.88-81.9V19.98H251a10 10 0 0 0 0-19.99H45.99a10 10 0 0 0 0 19.98h17.68v31.56c0 31.64 17.36 60.73 48.88 81.9 3.99 2.69 6.47 8.45 6.47 15.06 0 6.6-2.48 12.37-6.47 15.05-31.52 21.18-48.88 50.27-48.88 81.9v31.57H46a10 10 0 0 0 0 19.98h205.02a10 10 0 0 0 0-19.99zm-112.5-166.65a10 10 0 0 1 19.98 0v17.67a10 10 0 1 1-19.98 0v-17.67zm2.92 63.6a10.07 10.07 0 0 1 7.07-2.93 10.03 10.03 0 0 1 10 10 10.03 10.03 0 0 1-10 9.98c-2.63 0-5.2-1.07-7.07-2.93-1.86-1.85-2.93-4.43-2.93-7.06s1.07-5.2 2.93-7.06zM86.94 277.1c8.15-30.9 50.16-64.53 55.4-68.63a10 10 0 0 1 12.31 0c5.25 4.1 47.26 37.73 55.4 68.63H86.95z"/></svg>